<?xml version="1.0" encoding="UTF-8"?>
<svg id="Layer_1" xmlns="http://www.w3.org/2000/svg" version="1.1" viewBox="0 0 360 360">
  <!-- Generator: Adobe Illustrator 29.8.1, SVG Export Plug-In . SVG Version: 2.1.1 Build 2)  -->
  <defs>
    <style>
      .st0 {
        fill: #fff;
      }
    </style>
  </defs>
  <g>
    <path class="st0" d="M11.876,221.619H0v-105.689h12.476c7.205,0,11.809,8.066,11.809,26.282,0,12.517-1.935,20.025-6.605,24.337v.278c5.137,3.059,7.338,11.959,7.338,26.702,0,17.659-4.87,28.09-13.143,28.09ZM11.209,129.419h-3.536v31.568h3.536c3.202,0,5.804-3.894,5.804-15.297,0-13.21-2.602-16.271-5.804-16.271ZM11.408,174.199h-3.736v33.932h3.736c3.536,0,5.938-4.312,5.938-17.523,0-12.794-2.936-16.408-5.938-16.408Z"/>
    <path class="st0" d="M53.311,195.364c0,18.715-5.871,26.255-12.676,26.255-6.939,0-12.877-7.54-12.877-26.255v-52.642c0-19.523,6.005-26.792,12.877-26.792s12.676,7.001,12.676,26.792v52.642ZM45.571,140.703c0-7.272-2.135-11.445-5.003-11.445-3.069,0-5.138,3.905-5.138,11.445v56.276c0,7.272,2.069,11.714,5.205,11.714,3.068,0,4.936-4.442,4.936-11.577v-56.413Z"/>
    <path class="st0" d="M81.336,195.365c0,18.716-5.871,26.255-12.676,26.255-6.939,0-12.877-7.54-12.877-26.255v-52.644c0-19.523,6.005-26.793,12.877-26.793s12.676,7.001,12.676,26.793v52.644ZM73.597,140.702c0-7.272-2.135-11.445-5.003-11.445-3.069,0-5.138,3.905-5.138,11.445v56.278c0,7.272,2.069,11.714,5.205,11.714,3.068,0,4.936-4.442,4.936-11.578v-56.415Z"/>
    <path class="st0" d="M161.865,195.365c0,18.716-5.871,26.255-12.676,26.255-6.939,0-12.877-7.54-12.877-26.255v-52.644c0-19.523,6.005-26.793,12.877-26.793s12.676,7.001,12.676,26.793v52.644ZM154.126,140.702c0-7.272-2.135-11.445-5.003-11.445-3.069,0-5.138,3.905-5.138,11.445v56.278c0,7.272,2.069,11.714,5.205,11.714,3.068,0,4.936-4.442,4.936-11.578v-56.415Z"/>
    <path class="st0" d="M184.983,221.619h-20.549v-105.689h7.673v92.2h12.876v13.489Z"/>
    <path class="st0" d="M207.481,221.619h-20.548v-105.689h7.671v92.2h12.876v13.489Z"/>
    <path class="st0" d="M292.029,221.619h-7.673v-105.689h7.673v105.689Z"/>
    <path class="st0" d="M321,115.93l-8.74,105.689h-9.541l-8.739-105.689h8.006l5.603,82.049h.335l5.671-82.049h7.406Z"/>
    <path class="st0" d="M343.498,221.619h-20.548v-105.689h20.415v13.489h-12.743v30.317h11.009v13.489h-11.009v34.906h12.876v13.489Z"/>
    <path class="st0" d="M134.363,139.595c0-17.616-4.871-23.667-11.475-23.667-6.806,0-12.21,6.859-12.21,27.028v51.636c0,20.169,5.404,27.028,12.21,27.028,6.605,0,11.475-6.05,11.475-23.667,0-.862-.004-1.66-.012-2.419h.012v-10.353h-6.338v10.353c0,9.816-1.601,13.043-4.603,13.043-3.536,0-5.071-4.437-5.071-11.162v-57.283c0-6.725,1.534-11.162,5.071-11.162,3.002,0,4.603,3.227,4.603,13.043v10.353h6.338v-10.353h-.012c.007-.759.012-1.557.012-2.419Z"/>
    <path class="st0" d="M255.615,139.595c0-17.616-4.871-23.667-11.475-23.667-6.806,0-12.21,6.859-12.21,27.028v51.636c0,20.169,5.404,27.028,12.21,27.028,6.605,0,11.475-6.05,11.475-23.667,0-.862-.004-1.66-.012-2.419h.012v-10.353h-6.338v10.353c0,9.816-1.601,13.043-4.603,13.043-3.536,0-5.071-4.437-5.071-11.162v-57.283c0-6.725,1.534-11.162,5.071-11.162,3.002,0,4.603,3.227,4.603,13.043v10.353h6.338v-10.353h-.012c.007-.759.012-1.557.012-2.419Z"/>
    <path class="st0" d="M229.979,221.619h-20.548v-105.689h20.415v13.489h-12.743v30.317h11.009v13.489h-11.009v34.906h12.876v13.489Z"/>
    <path class="st0" d="M282.406,129.419h-8.873v92.2h-7.673v-92.2h-8.873v-13.489h25.419v13.489Z"/>
    <path class="st0" d="M96.118,115.93h-11.676v-.002h-3.64c-.257,0-.382.652-.188,1.004.676,1.231,1.799,3.627,2.775,7.378.721,2.773,1.053,5.924,1.053,9.078v88.229s7.673,0,7.673,0v-37.964h5.003c6.872,0,11.609-9.736,11.609-34.906,0-23.919-4.47-32.819-12.609-32.819ZM95.05,170.443h-2.936v-41.025h3.068c3.67,0,5.871,4.034,5.871,19.192,0,16.688-2.001,21.832-6.004,21.832Z"/>
  </g>
  <g>
    <path class="st0" d="M353.394,129.14c-3.642,0-6.606-2.963-6.606-6.606s2.963-6.606,6.606-6.606,6.606,2.963,6.606,6.606-2.963,6.606-6.606,6.606ZM353.394,117.27c-2.903,0-5.264,2.362-5.264,5.264s2.362,5.264,5.264,5.264,5.264-2.362,5.264-5.264-2.362-5.264-5.264-5.264Z"/>
    <path class="st0" d="M353.032,121.998c.369,0,.637-.074.798-.215.161-.134.248-.362.248-.684,0-.315-.087-.537-.248-.677-.161-.134-.429-.201-.798-.201h-.751v1.777h.751M352.281,123.225v2.615h-1.784v-6.914h2.723c.912,0,1.576.154,1.998.463.429.302.637.785.637,1.449,0,.456-.107.832-.329,1.127-.221.288-.55.51-.999.644.248.06.463.188.657.382.194.194.389.49.583.892l.972,1.958h-1.898l-.845-1.717c-.168-.342-.342-.583-.516-.704-.174-.127-.409-.194-.697-.194h-.503"/>
  </g>
  <g>
    <path class="st0" d="M0,232.469h7.82v1.382H1.527v3.423h5.533v1.342H1.527v5.127H0v-11.273Z"/>
    <path class="st0" d="M9.01,232.469h5.218c.859,0,1.568.126,2.126.377,1.058.481,1.588,1.368,1.588,2.662,0,.675-.139,1.228-.418,1.659-.28.429-.669.775-1.17,1.035.44.179.771.414.993.706.223.291.347.764.372,1.42l.054,1.512c.015.429.051.749.107.959.093.358.256.588.492.691v.253h-1.872c-.051-.096-.092-.222-.123-.375-.031-.155-.057-.45-.077-.891l-.092-1.879c-.036-.737-.309-1.23-.821-1.481-.292-.138-.75-.207-1.374-.207h-3.475v4.834h-1.527v-11.273ZM14.067,237.634c.716,0,1.282-.142,1.699-.429.417-.286.626-.804.626-1.55,0-.804-.292-1.351-.875-1.643-.312-.153-.729-.23-1.251-.23h-3.729v3.852h3.53Z"/>
    <path class="st0" d="M28.517,234.082c.747.997,1.12,2.273,1.12,3.828,0,1.683-.427,3.083-1.281,4.198-1.003,1.31-2.433,1.964-4.289,1.964-1.735,0-3.098-.573-4.09-1.719-.885-1.104-1.327-2.501-1.327-4.189,0-1.524.378-2.829,1.136-3.913.972-1.392,2.409-2.088,4.312-2.088,1.99,0,3.463.64,4.42,1.919ZM27.17,241.259c.6-.963.901-2.072.901-3.325,0-1.325-.347-2.392-1.04-3.201-.693-.807-1.64-1.212-2.843-1.212-1.166,0-2.118.4-2.854,1.201-.737.801-1.105,1.98-1.105,3.541,0,1.248.316,2.301.947,3.158.632.856,1.657,1.285,3.073,1.285,1.346,0,2.319-.482,2.92-1.447Z"/>
    <path class="st0" d="M30.789,232.469h2.187l3.238,9.532,3.215-9.532h2.164v11.273h-1.45v-6.654c0-.23.005-.611.015-1.143s.015-1.103.015-1.711l-3.215,9.507h-1.512l-3.238-9.507v.345c0,.277.006.697.019,1.262.012.565.019.982.019,1.247v6.654h-1.458v-11.273Z"/>
    <path class="st0" d="M63.686,232.469v1.343h-3.799v9.93h-1.55v-9.93h-3.798v-1.343h9.146Z"/>
    <path class="st0" d="M65.121,232.469h1.542v4.658h5.862v-4.658h1.542v11.273h-1.542v-5.272h-5.862v5.272h-1.542v-11.273Z"/>
    <path class="st0" d="M75.949,232.469h8.219v1.382h-6.73v3.423h6.223v1.303h-6.223v3.822h6.845v1.343h-8.334v-11.273Z"/>
    <path class="st0" d="M106.199,233.292c.788.751,1.225,1.605,1.312,2.562h-1.489c-.168-.726-.505-1.302-1.009-1.726-.504-.426-1.212-.637-2.122-.637-1.11,0-2.006.389-2.69,1.17-.682.78-1.024,1.976-1.024,3.587,0,1.32.308,2.389.924,3.212.616.821,1.536,1.231,2.759,1.231,1.126,0,1.983-.433,2.571-1.297.312-.455.545-1.054.698-1.795h1.489c-.133,1.187-.574,2.181-1.32,2.985-.895.966-2.102,1.449-3.622,1.449-1.31,0-2.409-.395-3.3-1.189-1.171-1.049-1.757-2.668-1.757-4.857,0-1.663.44-3.027,1.32-4.091.952-1.155,2.264-1.734,3.936-1.734,1.428,0,2.535.377,3.323,1.129Z"/>
    <path class="st0" d="M118.761,234.082c.747.997,1.12,2.273,1.12,3.828,0,1.683-.427,3.083-1.281,4.198-1.003,1.31-2.433,1.964-4.289,1.964-1.735,0-3.098-.573-4.09-1.719-.885-1.104-1.327-2.501-1.327-4.189,0-1.524.378-2.829,1.136-3.913.972-1.392,2.409-2.088,4.312-2.088,1.99,0,3.463.64,4.42,1.919ZM117.415,241.259c.6-.963.901-2.072.901-3.325,0-1.325-.347-2.392-1.04-3.201-.693-.807-1.64-1.212-2.843-1.212-1.166,0-2.118.4-2.854,1.201-.737.801-1.105,1.98-1.105,3.541,0,1.248.316,2.301.947,3.158.632.856,1.657,1.285,3.073,1.285,1.346,0,2.319-.482,2.92-1.447Z"/>
    <path class="st0" d="M130.985,234.082c.747.997,1.12,2.273,1.12,3.828,0,1.683-.427,3.083-1.281,4.198-1.003,1.31-2.433,1.964-4.289,1.964-1.735,0-3.098-.573-4.09-1.719-.885-1.104-1.327-2.501-1.327-4.189,0-1.524.378-2.829,1.136-3.913.972-1.392,2.409-2.088,4.312-2.088,1.99,0,3.463.64,4.42,1.919ZM129.638,241.259c.6-.963.901-2.072.901-3.325,0-1.325-.347-2.392-1.04-3.201-.693-.807-1.64-1.212-2.843-1.212-1.166,0-2.118.4-2.854,1.201-.737.801-1.105,1.98-1.105,3.541,0,1.248.316,2.301.947,3.158.632.856,1.657,1.285,3.073,1.285,1.346,0,2.319-.482,2.92-1.447Z"/>
    <path class="st0" d="M133.441,232.469h5.073c1.002,0,1.81.283,2.425.849.613.565.921,1.36.921,2.383,0,.879-.273,1.645-.821,2.298s-1.389.979-2.524.979h-3.546v4.765h-1.527v-11.273ZM139.396,234.019c-.338-.158-.801-.237-1.389-.237h-3.039v3.906h3.039c.685,0,1.242-.146,1.67-.437.427-.293.64-.806.64-1.542,0-.829-.307-1.392-.921-1.689Z"/>
    <path class="st0" d="M142.98,232.469h8.219v1.382h-6.73v3.423h6.223v1.303h-6.223v3.822h6.845v1.343h-8.334v-11.273Z"/>
    <path class="st0" d="M152.557,232.469h5.218c.859,0,1.568.126,2.126.377,1.058.481,1.588,1.368,1.588,2.662,0,.675-.139,1.228-.418,1.659-.28.429-.669.775-1.17,1.035.44.179.771.414.993.706.223.291.347.764.372,1.42l.054,1.512c.015.429.051.749.107.959.093.358.256.588.492.691v.253h-1.872c-.051-.096-.092-.222-.123-.375-.031-.155-.057-.45-.077-.891l-.092-1.879c-.036-.737-.309-1.23-.821-1.481-.292-.138-.75-.207-1.374-.207h-3.475v4.834h-1.527v-11.273ZM157.614,237.634c.716,0,1.282-.142,1.699-.429.417-.286.626-.804.626-1.55,0-.804-.292-1.351-.875-1.643-.312-.153-.729-.23-1.251-.23h-3.729v3.852h3.53Z"/>
    <path class="st0" d="M171.474,232.469h4.842c1.32,0,2.259.395,2.817,1.182.327.466.491,1.003.491,1.611,0,.711-.202,1.294-.607,1.749-.21.24-.512.461-.905.66.578.221,1.01.469,1.297.744.507.492.76,1.169.76,2.034,0,.726-.227,1.383-.682,1.971-.681.881-1.763,1.32-3.246,1.32h-4.765v-11.273ZM175.748,237.236c.645,0,1.146-.09,1.504-.27.563-.28.844-.787.844-1.519,0-.737-.299-1.233-.898-1.489-.338-.142-.839-.214-1.504-.214h-2.724v3.492h2.778ZM176.262,242.437c.937,0,1.604-.271,2.003-.813.25-.342.375-.757.375-1.242,0-.819-.365-1.377-1.097-1.673-.389-.159-.903-.239-1.542-.239h-3.031v3.967h3.292Z"/>
    <path class="st0" d="M190.965,234.082c.747.997,1.121,2.273,1.121,3.828,0,1.683-.429,3.083-1.284,4.198-1.002,1.31-2.432,1.964-4.289,1.964-1.734,0-3.097-.573-4.09-1.719-.885-1.104-1.327-2.501-1.327-4.189,0-1.524.378-2.829,1.136-3.913.972-1.392,2.409-2.088,4.312-2.088,1.991,0,3.465.64,4.42,1.919ZM189.617,241.259c.603-.963.904-2.072.904-3.325,0-1.325-.346-2.392-1.042-3.201-.692-.807-1.639-1.212-2.843-1.212-1.167,0-2.117.4-2.854,1.201s-1.105,1.98-1.105,3.541c0,1.248.316,2.301.947,3.158.631.856,1.657,1.285,3.073,1.285,1.345,0,2.319-.482,2.919-1.447Z"/>
    <path class="st0" d="M194.335,232.469l2.124,9.17,2.549-9.17h1.657l2.547,9.17,2.126-9.17h1.673l-2.962,11.273h-1.604l-2.601-9.346-2.618,9.346h-1.604l-2.947-11.273h1.659Z"/>
    <path class="st0" d="M208.069,232.469h2.187l3.238,9.532,3.217-9.532h2.163v11.273h-1.449v-6.654c0-.23.005-.611.015-1.143.009-.531.015-1.103.015-1.711l-3.217,9.507h-1.51l-3.239-9.507v.345c0,.277.006.697.02,1.262.012.565.018.982.018,1.247v6.654h-1.458v-11.273Z"/>
    <path class="st0" d="M224.161,232.469h1.726l4.09,11.273h-1.673l-1.143-3.376h-4.459l-1.221,3.376h-1.565l4.244-11.273ZM226.67,239.123l-1.711-4.979-1.82,4.979h3.531Z"/>
    <path class="st0" d="M231.053,232.469h1.803l5.693,9.132v-9.132h1.45v11.273h-1.711l-5.779-9.124v9.124h-1.457v-11.273Z"/>
    <path class="st0" d="M258.263,233.292c.787.751,1.225,1.605,1.313,2.562h-1.489c-.168-.726-.505-1.302-1.009-1.726-.504-.426-1.212-.637-2.121-.637-1.11,0-2.006.389-2.69,1.17-.683.78-1.025,1.976-1.025,3.587,0,1.32.308,2.389.925,3.212.616.821,1.535,1.231,2.759,1.231,1.124,0,1.982-.433,2.57-1.297.312-.455.545-1.054.698-1.795h1.489c-.133,1.187-.573,2.181-1.32,2.985-.894.966-2.103,1.449-3.622,1.449-1.31,0-2.409-.395-3.299-1.189-1.172-1.049-1.757-2.668-1.757-4.857,0-1.663.44-3.027,1.32-4.091.951-1.155,2.264-1.734,3.936-1.734,1.428,0,2.535.377,3.322,1.129Z"/>
    <path class="st0" d="M270.511,234.082c.746.997,1.12,2.273,1.12,3.828,0,1.683-.427,3.083-1.282,4.198-1.002,1.31-2.432,1.964-4.289,1.964-1.734,0-3.099-.573-4.09-1.719-.885-1.104-1.328-2.501-1.328-4.189,0-1.524.378-2.829,1.135-3.913.973-1.392,2.409-2.088,4.313-2.088,1.99,0,3.463.64,4.42,1.919ZM269.163,241.259c.602-.963.902-2.072.902-3.325,0-1.325-.346-2.392-1.04-3.201-.694-.807-1.64-1.212-2.843-1.212-1.167,0-2.118.4-2.855,1.201s-1.104,1.98-1.104,3.541c0,1.248.316,2.301.948,3.158.631.856,1.656,1.285,3.073,1.285,1.345,0,2.319-.482,2.919-1.447Z"/>
    <path class="st0" d="M272.822,232.469h1.527v9.93h5.709v1.343h-7.236v-11.273Z"/>
    <path class="st0" d="M281.248,232.469h1.527v9.93h5.709v1.343h-7.236v-11.273Z"/>
    <path class="st0" d="M289.505,232.469h8.217v1.382h-6.729v3.423h6.223v1.303h-6.223v3.822h6.844v1.343h-8.332v-11.273Z"/>
    <path class="st0" d="M307.285,233.292c.787.751,1.225,1.605,1.313,2.562h-1.489c-.168-.726-.505-1.302-1.009-1.726-.504-.426-1.212-.637-2.121-.637-1.11,0-2.006.389-2.69,1.17-.683.78-1.025,1.976-1.025,3.587,0,1.32.308,2.389.925,3.212.616.821,1.535,1.231,2.759,1.231,1.124,0,1.982-.433,2.57-1.297.312-.455.545-1.054.698-1.795h1.489c-.133,1.187-.573,2.181-1.32,2.985-.894.966-2.103,1.449-3.622,1.449-1.31,0-2.409-.395-3.299-1.189-1.172-1.049-1.757-2.668-1.757-4.857,0-1.663.44-3.027,1.32-4.091.951-1.155,2.264-1.734,3.936-1.734,1.428,0,2.535.377,3.322,1.129Z"/>
    <path class="st0" d="M318.449,232.469v1.343h-3.799v9.93h-1.55v-9.93h-3.799v-1.343h9.147Z"/>
    <path class="st0" d="M319.562,232.469h1.542v11.273h-1.542v-11.273Z"/>
    <path class="st0" d="M332.24,234.082c.746.997,1.12,2.273,1.12,3.828,0,1.683-.427,3.083-1.282,4.198-1.002,1.31-2.432,1.964-4.289,1.964-1.734,0-3.099-.573-4.09-1.719-.885-1.104-1.328-2.501-1.328-4.189,0-1.524.378-2.829,1.135-3.913.973-1.392,2.409-2.088,4.313-2.088,1.99,0,3.463.64,4.42,1.919ZM330.892,241.259c.602-.963.902-2.072.902-3.325,0-1.325-.346-2.392-1.04-3.201-.694-.807-1.64-1.212-2.843-1.212-1.167,0-2.118.4-2.855,1.201s-1.104,1.98-1.104,3.541c0,1.248.316,2.301.948,3.158.631.856,1.656,1.285,3.073,1.285,1.345,0,2.319-.482,2.919-1.447Z"/>
    <path class="st0" d="M334.551,232.469h1.803l5.693,9.132v-9.132h1.45v11.273h-1.711l-5.779-9.124v9.124h-1.457v-11.273Z"/>
  </g>
</svg>