<?xml version="1.0" encoding="UTF-8"?>
<svg id="Layer_1" xmlns="http://www.w3.org/2000/svg" version="1.1" viewBox="0 0 360 360">
  <!-- Generator: Adobe Illustrator 29.8.1, SVG Export Plug-In . SVG Version: 2.1.1 Build 2)  -->
  <defs>
    <style>
      .st0 {
        fill: #fff;
      }
    </style>
  </defs>
  <path class="st0" d="M164.729,130.959v-32.062c0-25.034-.984-37.263-10.429-49.882-8.283-6.769-15.645-8.632-21.23-8.632-6.763,0-10.921,2.722-10.959,2.747v.004c19.861,14.229,24.468,39.811,24.303,49.737v48.323c5.28-4.576,11.489-8.105,18.316-10.236Z"/>
  <path class="st0" d="M119.233,40.411l.751-.496c.526-.347,5.357-3.387,13.086-3.387,5.685,0,11.352,1.628,16.925,4.825-.131-3.252-1.592-6.041-3.071-8.051-5.835-2.498-11.276-3.639-16.297-3.639-7.644,0-14.322,2.631-19.97,7.096-1.93,1.525-3.724,3.287-5.41,5.208,5.329-2.421,10.625-2.161,13.987-1.556Z"/>
  <path class="st0" d="M134.849,92.763v39.366l7.71,7.71v-47.031c.139-8.324-3.669-32.911-22.697-46.541l-3.257-2.333c-3.4-.315-8.094.052-12.454,3.069,25.76,8.075,30.892,36.729,30.698,45.76Z"/>
  <path class="st0" d="M46.273,119.871c13.341,18.62,37.796,22.698,46.093,22.698.156,0,.307-.001.519-.004h46.949l-7.713-7.713c-.674.004-1.124.004-1.124.004h-38.219c-.16.003-.327.005-.499.005-9.546,0-37.345-5.4-45.273-30.712-3.019,4.361-3.386,9.056-3.071,12.458l2.339,3.265Z"/>
  <path class="st0" d="M178.072,8.727V0c-14.269,6.82-25.073,21.085-29.301,29.429,1.672,1.912,3.689,4.82,4.604,8.457,3.222-9.064,10.129-21.637,24.697-29.158Z"/>
  <path class="st0" d="M178.072,128.69V13.113c-15.09,8.662-20.663,23.503-22.604,31.165,12.497,15.229,13.116,29.584,13.116,54.62v31.038c3.069-.7,6.239-1.125,9.488-1.246Z"/>
  <path class="st0" d="M98.897,168.585c-25.034,0-39.388-.619-54.615-13.112-7.663,1.941-22.504,7.513-31.167,22.6h115.574c.121-3.249.546-6.419,1.246-9.488h-31.038Z"/>
  <path class="st0" d="M191.415,98.897c0-25.036.619-39.391,13.116-54.619-1.941-7.662-7.514-22.503-22.604-31.165v115.577c3.249.121,6.419.546,9.488,1.246v-31.038Z"/>
  <polygon class="st0" points="42.515 151.922 42.516 151.931 42.52 151.93 42.515 151.922"/>
  <path class="st0" d="M41.35,149.998c-9.755-16.966-1.816-29.418-1.428-30.006l.492-.745c-.606-3.355-.87-8.647,1.542-13.975-1.915,1.682-3.67,3.471-5.191,5.394-7.401,9.36-9.759,21.554-3.45,36.276,2.008,1.478,4.791,2.934,8.035,3.056Z"/>
  <path class="st0" d="M98.897,191.415h31.038c-.699-3.069-1.125-6.239-1.246-9.488H13.115c8.662,15.086,23.504,20.659,31.167,22.6,15.226-12.493,29.581-13.112,54.615-13.112Z"/>
  <path class="st0" d="M37.915,153.371c-3.642-.911-6.567-2.921-8.483-4.595-8.346,4.228-22.611,15.03-29.432,29.296h8.73c7.529-14.578,20.118-21.483,29.185-24.701Z"/>
  <polygon class="st0" points="42.52 208.07 42.516 208.068 42.515 208.078 42.52 208.07"/>
  <path class="st0" d="M49.028,154.31c12.615,9.436,24.844,10.42,49.869,10.42h32.062c2.13-6.824,5.658-13.032,10.231-18.311h-48.305c-.169.003-.341.004-.519.004-10.275,0-35.238-4.784-49.226-24.308,0,0-9.123,13.834,5.888,32.194Z"/>
  <polygon class="st0" points="317.485 208.079 317.485 208.068 317.48 208.07 317.485 208.079"/>
  <path class="st0" d="M315.717,155.472c-15.227,12.493-29.581,13.112-54.615,13.112h-31.038c.699,3.069,1.125,6.239,1.246,9.488h115.574c-8.662-15.086-23.504-20.659-31.167-22.6Z"/>
  <polygon class="st0" points="317.48 151.93 317.485 151.932 317.485 151.921 317.48 151.93"/>
  <path class="st0" d="M319.586,119.247l.492.745c.388.588,8.327,13.04-1.428,30.006,3.248-.121,6.026-1.57,8.03-3.044,6.315-14.728,3.957-26.926-3.445-36.288-1.521-1.923-3.276-3.712-5.19-5.394,2.412,5.328,2.148,10.62,1.542,13.975Z"/>
  <path class="st0" d="M346.884,181.928h-115.574c-.121,3.249-.546,6.419-1.246,9.488h31.038c25.033,0,39.388.619,54.614,13.112,7.663-1.941,22.505-7.513,31.168-22.6Z"/>
  <path class="st0" d="M206.624,37.885c.916-3.637,2.933-6.545,4.605-8.457C207,21.084,196.197,6.819,181.928,0v8.728c14.568,7.521,21.475,20.094,24.697,29.158Z"/>
  <path class="st0" d="M267.634,146.423c-.177,0-.351-.001-.519-.004h-48.305c4.574,5.279,8.102,11.487,10.231,18.311h32.062c25.026,0,37.255-.984,49.87-10.42,15.01-18.36,5.888-32.194,5.888-32.194-13.989,19.525-38.953,24.308-49.226,24.308Z"/>
  <path class="st0" d="M226.93,36.529c7.73,0,12.561,3.04,13.086,3.387l.752.496c3.361-.605,8.657-.866,13.986,1.555-1.686-1.921-3.481-3.683-5.41-5.208-5.648-4.464-12.327-7.095-19.97-7.096-5.022,0-10.461,1.141-16.296,3.639-1.479,2.01-2.941,4.799-3.072,8.052,5.572-3.198,11.24-4.826,16.925-4.826Z"/>
  <path class="st0" d="M237.893,43.132s-4.167-2.749-10.963-2.749c-5.585,0-12.947,1.864-21.229,8.631-9.446,12.62-10.43,24.848-10.43,49.883v32.062c6.826,2.13,13.036,5.66,18.316,10.236v-48.323c-.165-9.926,4.442-35.51,24.307-49.739Z"/>
  <path class="st0" d="M227.88,134.851l-7.713,7.713h47.012c.148.003.3.004.455.004,8.297,0,32.752-4.078,46.093-22.698l2.34-3.265c.316-3.401-.051-8.097-3.071-12.458-7.927,25.311-35.725,30.713-45.273,30.713-.173,0-.339-.002-.499-.005h-38.219s-.45,0-1.124-.004Z"/>
  <path class="st0" d="M243.362,43.957l-3.224,2.31c-19.028,13.629-22.836,38.217-22.697,46.605v46.967l7.71-7.71v-39.366c-.194-9.031,4.938-37.683,30.696-45.76-4.347-3-9.073-3.36-12.485-3.046Z"/>
  <polygon class="st0" points="258.196 46.333 258.196 46.333 258.197 46.333 258.196 46.333"/>
  <path class="st0" d="M181.928,231.31v115.577c15.09-8.662,20.663-23.504,22.604-31.165-12.497-15.228-13.116-29.583-13.116-54.619v-31.038c-3.069.7-6.239,1.125-9.488,1.246Z"/>
  <path class="st0" d="M240.764,319.591l-.748.493c-.526.347-5.357,3.387-13.086,3.387-5.685,0-11.353-1.628-16.925-4.826.132,3.253,1.593,6.042,3.072,8.052,5.835,2.497,11.275,3.639,16.296,3.639,7.644,0,14.322-2.631,19.97-7.096,1.928-1.524,3.721-3.284,5.406-5.203-3.264,1.482-6.519,1.975-9.323,1.975-1.773,0-3.362-.187-4.663-.421Z"/>
  <path class="st0" d="M313.727,240.129c-13.34-18.619-37.795-22.697-46.093-22.698-.156,0-.307.001-.519.004h-46.949l7.713,7.713c.674-.004,1.125-.004,1.125-.004h38.219c.16-.003.327-.005.499-.005,9.546,0,37.345,5.4,45.273,30.712,3.02-4.36,3.387-9.056,3.071-12.457l-2.34-3.265Z"/>
  <path class="st0" d="M8.729,181.928H0c6.822,14.269,21.092,25.072,29.437,29.299,1.916-1.671,4.829-3.684,8.475-4.598-9.067-3.219-21.654-10.124-29.182-24.7Z"/>
  <path class="st0" d="M226.93,319.617c6.774,0,10.935-2.732,10.96-2.748v-.003c-19.862-14.229-24.469-39.811-24.304-49.737v-48.324c-5.28,4.576-11.489,8.105-18.316,10.236v32.062c0,25.036.984,37.264,10.431,49.884,8.283,6.767,15.643,8.63,21.228,8.63Z"/>
  <path class="st0" d="M181.928,351.273v8.728c14.269-6.82,25.073-21.086,29.302-29.43-1.672-1.912-3.689-4.819-4.605-8.456-3.222,9.064-10.129,21.637-24.697,29.158Z"/>
  <path class="st0" d="M330.568,148.776c-1.916,1.674-4.841,3.683-8.483,4.595,9.067,3.218,21.657,10.123,29.185,24.702h8.73c-6.821-14.266-21.086-25.068-29.432-29.296Z"/>
  <path class="st0" d="M310.973,205.692c-12.615-9.438-24.843-10.421-49.871-10.421h-32.062c-2.13,6.824-5.658,13.032-10.231,18.311h48.305c.169-.003.341-.004.519-.004,10.275,0,35.238,4.784,49.226,24.308,0,0,9.122-13.833-5.887-32.193Z"/>
  <path class="st0" d="M213.586,213.581h.013c8.587-8.592,13.899-20.457,13.905-33.563v-.037c-.005-13.106-5.317-24.971-13.904-33.563h-.013v-.013c-8.596-8.594-20.47-13.91-33.586-13.91s-24.99,5.315-33.586,13.91v.013h-.013c-8.591,8.596-13.905,20.468-13.905,33.581s5.314,24.986,13.905,33.581h.013v.013c8.592,8.59,20.459,13.904,33.568,13.909h.037c13.108-.005,24.975-5.319,33.568-13.909v-.013ZM170.082,218.553l-.365.248c-.402.273-.95.129-1.169-.306-.782-1.547-2.674-4.801-5.19-5.811-3.343-1.342-14.819-3.707-20.65-16.051-5.766-12.205-5.148-27.194,1.635-37.101,6.783-9.907,15.03-12.835,20.643-12.835,4.323,0,8.619,1.163,11.639,5.209.98,1.312,1.748,2.594,2.549,2.836,1.408.425,1.689,2.311.458,3.117-1.582,1.036-3.466,1.779-5.296,3.784-1.062,1.163-3.008.37-3.006-1.205v-.114c0-3.807-3.123-5.271-6.954-5.271s-13.933,3.672-13.933,23.986c0,4.904,1.903,23.461,14.201,23.461,4.557,0,8.166-3.802,9.906-6.057.64-.83,1.851-.928,2.602-.197l1.844,1.796c.719.7.702,1.863-.043,2.535-2.983,2.691-9.722,9.201-9.722,13.077,0,0-.26,1.777,1.083,3.819.234.356.121.838-.231,1.077ZM204.197,212.075c-.539,1.015-1.91,1.188-2.755.408-2.2-2.034-6.536-4.991-13.14-4.991-6.444,0-9.708,4.588-11.895,7.961-.944,1.456-3.008.848-3.037-.887-.028-1.645.453-3.648,2.095-5.811,4.398-5.79,7.847-6.217,7.847-10.308v-43.039s.181-1.973-4.651-5.371c-.864-.608-1.047-1.824-.339-2.608,1.083-1.2,3.067-2.611,6.406-2.611,5.807,0,4.49,4.294,13.274,4.294,0,0,18.288.098,18.288,14.738,0,4.726-3.534,7.912-6.128,9.614-1.053.691-1.025,2.23.044,2.896,3.437,2.141,8.894,6.884,8.931,15.426,0,.059-.002.11-.007.168-.068.715-.622,5.99-2.517,9.606-.197.376-.537.649-.939.786-1.927.66-8.004,3.187-11.477,9.726Z"/>
  <path class="st0" d="M318.654,210.008c9.749,16.963,1.812,29.411,1.424,29.999l-.492.745c.606,3.355.871,8.647-1.542,13.975,1.915-1.682,3.67-3.471,5.191-5.394,7.398-9.357,9.757-21.546,3.456-36.261-2.004-1.471-4.785-2.923-8.038-3.065Z"/>
  <path class="st0" d="M322.087,206.628c3.645.915,6.559,2.928,8.475,4.598,8.345-4.226,22.615-15.03,29.438-29.299h-8.73c-7.528,14.577-20.117,21.482-29.183,24.701Z"/>
  <path class="st0" d="M225.151,267.237v-39.365l-7.71-7.71v47.031c-.139,8.324,3.669,32.912,22.697,46.541l3.257,2.333c3.4.316,8.095-.051,12.454-3.069-25.76-8.075-30.892-36.729-30.698-45.76Z"/>
  <path class="st0" d="M122.109,316.866v.004c.04.025,4.196,2.747,10.961,2.747,5.585,0,12.947-1.864,21.229-8.631,9.446-12.619,10.43-24.848,10.43-49.883v-32.062c-6.826-2.13-13.036-5.66-18.316-10.236v48.324c.165,9.926-4.442,35.508-24.305,49.737Z"/>
  <path class="st0" d="M116.605,316.067l3.257-2.333c19.028-13.629,22.836-38.217,22.697-46.605v-46.967l-7.71,7.71v39.365c.194,9.032-4.938,37.685-30.698,45.76,4.361,3.017,9.054,3.384,12.455,3.069Z"/>
  <path class="st0" d="M40.414,240.753l-.492-.746c-.388-.588-8.327-13.039,1.427-30.004-3.247.128-6.029,1.583-8.036,3.059-6.306,14.72-3.948,26.912,3.452,36.272,1.521,1.923,3.276,3.712,5.191,5.394-2.412-5.328-2.148-10.62-1.542-13.975Z"/>
  <path class="st0" d="M133.07,323.471c-7.73,0-12.561-3.04-13.086-3.387l-.747-.493c-1.301.234-2.89.421-4.663.421-2.805,0-6.059-.492-9.323-1.974,1.685,1.919,3.478,3.679,5.406,5.203,5.648,4.464,12.327,7.096,19.97,7.096,5.022,0,10.461-1.141,16.297-3.639,1.479-2.01,2.94-4.799,3.071-8.052-5.572,3.198-11.239,4.825-16.925,4.825Z"/>
  <path class="st0" d="M132.121,225.149l7.713-7.713h-47.012c-.148-.003-.3-.004-.455-.004-8.297,0-32.751,4.077-46.093,22.698l-2.339,3.265c-.316,3.401.051,8.097,3.071,12.457,7.927-25.31,35.725-30.712,45.272-30.712.173,0,.339.002.499.005h38.219s.45,0,1.125.004Z"/>
  <path class="st0" d="M92.366,213.577c.177,0,.351.001.519.004h48.305c-4.574-5.279-8.102-11.487-10.231-18.311h-32.062c-25.027,0-37.255.984-49.87,10.421-15.01,18.36-5.888,32.194-5.888,32.194,13.989-19.525,38.953-24.308,49.226-24.308Z"/>
  <path class="st0" d="M153.375,322.114c-.915,3.637-2.933,6.545-4.605,8.457,4.228,8.344,15.032,22.609,29.302,29.43v-8.728c-14.568-7.521-21.475-20.094-24.697-29.158Z"/>
  <path class="st0" d="M194.376,175.392h.369c.181,0,.367-.028.539-.081,9.719-3.009,9.718-9.313,9.718-9.313,0-9.236-7.65-8.998-7.65-8.998h-2.976c-.961,0-1.741.779-1.741,1.741v14.911c0,.961.779,1.741,1.741,1.741Z"/>
  <path class="st0" d="M198.663,179.909h-6.328v12.646c0,1.447-.229,2.894-.758,4.241-.12.306-.258.627-.417.957-.568,1.181.328,2.528,1.638,2.489,2.491-.073,5.859.185,8.518,1.695,0,0,.301-.192.776-.558,1.764-1.36,5.922-5.121,5.922-10.344,0-6.629-5.38-11.126-9.352-11.126Z"/>
  <path class="st0" d="M168.585,261.103c0,25.036-.619,39.391-13.116,54.62,1.941,7.662,7.514,22.503,22.604,31.165v-115.577c-3.249-.121-6.419-.546-9.488-1.246v31.038Z"/>
</svg>