<?xml version="1.0" encoding="UTF-8"?>
<svg id="Layer_1" xmlns="http://www.w3.org/2000/svg" version="1.1" viewBox="0 0 360 360">
  <!-- Generator: Adobe Illustrator 29.8.1, SVG Export Plug-In . SVG Version: 2.1.1 Build 2)  -->
  <defs>
    <style>
      .st0 {
        fill: #fff;
      }
    </style>
  </defs>
  <path class="st0" d="M164.729,130.959v-32.062c0-25.034-.984-37.263-10.429-49.882-8.283-6.769-15.645-8.632-21.23-8.632-6.763,0-10.921,2.722-10.959,2.747v.004c19.861,14.229,24.468,39.811,24.303,49.737v48.323c5.28-4.576,11.489-8.105,18.316-10.236h0Z"/>
  <path class="st0" d="M119.233,40.411l.751-.496c.526-.347,5.357-3.387,13.086-3.387,5.685,0,11.352,1.628,16.925,4.825-.131-3.252-1.592-6.041-3.071-8.051-5.835-2.498-11.276-3.639-16.297-3.639-7.644,0-14.322,2.631-19.97,7.096-1.93,1.525-3.724,3.287-5.41,5.208,5.329-2.421,10.625-2.161,13.987-1.556h-.001Z"/>
  <path class="st0" d="M134.849,92.763v39.366l7.71,7.71v-47.031c.139-8.324-3.669-32.911-22.697-46.541l-3.257-2.333c-3.4-.315-8.094.052-12.454,3.069,25.76,8.075,30.892,36.729,30.698,45.76h0Z"/>
  <path class="st0" d="M46.273,119.871c13.341,18.62,37.796,22.698,46.093,22.698.156,0,.307-.001.519-.004h46.949l-7.713-7.713c-.674.004-1.124.004-1.124.004h-38.219c-.16.003-.327.005-.499.005-9.546,0-37.345-5.4-45.273-30.712-3.019,4.361-3.386,9.056-3.071,12.458l2.339,3.265h-.001Z"/>
  <path class="st0" d="M178.072,8.727V0c-14.269,6.82-25.073,21.085-29.301,29.429,1.672,1.912,3.689,4.82,4.604,8.457,3.222-9.064,10.129-21.637,24.697-29.158h0Z"/>
  <path class="st0" d="M178.072,128.69V13.113c-15.09,8.662-20.663,23.503-22.604,31.165,12.497,15.229,13.116,29.584,13.116,54.62v31.038c3.069-.7,6.239-1.125,9.488-1.246h0Z"/>
  <path class="st0" d="M98.897,168.585c-25.034,0-39.388-.619-54.615-13.112-7.663,1.941-22.504,7.513-31.167,22.6h115.574c.121-3.249.546-6.419,1.246-9.488,0,0-31.038,0-31.038,0Z"/>
  <path class="st0" d="M191.415,98.897c0-25.036.619-39.391,13.116-54.619-1.941-7.662-7.514-22.503-22.604-31.165v115.577c3.249.121,6.419.546,9.488,1.246v-31.038h0Z"/>
  <polygon class="st0" points="42.515 151.922 42.516 151.931 42.52 151.93 42.515 151.922"/>
  <path class="st0" d="M41.35,149.998c-9.755-16.966-1.816-29.418-1.428-30.006l.492-.745c-.606-3.355-.87-8.647,1.542-13.975-1.915,1.682-3.67,3.471-5.191,5.394-7.401,9.36-9.759,21.554-3.45,36.276,2.008,1.478,4.791,2.934,8.035,3.056Z"/>
  <path class="st0" d="M98.897,191.415h31.038c-.699-3.069-1.125-6.239-1.246-9.488H13.115c8.662,15.086,23.504,20.659,31.167,22.6,15.226-12.493,29.581-13.112,54.615-13.112Z"/>
  <path class="st0" d="M37.915,153.371c-3.642-.911-6.567-2.921-8.483-4.595C21.086,153.004,6.821,163.806,0,178.072h8.73c7.529-14.578,20.118-21.483,29.185-24.701Z"/>
  <polygon class="st0" points="42.52 208.07 42.516 208.068 42.515 208.078 42.52 208.07"/>
  <path class="st0" d="M49.028,154.31c12.615,9.436,24.844,10.42,49.869,10.42h32.062c2.13-6.824,5.658-13.032,10.231-18.311h-48.305c-.169.003-.341.004-.519.004-10.275,0-35.238-4.784-49.226-24.308,0,0-9.123,13.834,5.888,32.194h0Z"/>
  <polygon class="st0" points="317.485 208.079 317.485 208.068 317.48 208.07 317.485 208.079"/>
  <path class="st0" d="M315.717,155.472c-15.227,12.493-29.581,13.112-54.615,13.112h-31.038c.699,3.069,1.125,6.239,1.246,9.488h115.574c-8.662-15.086-23.504-20.659-31.167-22.6h0Z"/>
  <polygon class="st0" points="317.48 151.93 317.485 151.932 317.485 151.921 317.48 151.93"/>
  <path class="st0" d="M319.586,119.247l.492.745c.388.588,8.327,13.04-1.428,30.006,3.248-.121,6.026-1.57,8.03-3.044,6.315-14.728,3.957-26.926-3.445-36.288-1.521-1.923-3.276-3.712-5.19-5.394,2.412,5.328,2.148,10.62,1.542,13.975h0Z"/>
  <path class="st0" d="M346.884,181.928h-115.574c-.121,3.249-.546,6.419-1.246,9.488h31.038c25.033,0,39.388.619,54.614,13.112,7.663-1.941,22.505-7.513,31.168-22.6Z"/>
  <path class="st0" d="M206.624,37.885c.916-3.637,2.933-6.545,4.605-8.457-4.229-8.344-15.032-22.609-29.301-29.428v8.728c14.568,7.521,21.475,20.094,24.697,29.158h-.001Z"/>
  <path class="st0" d="M267.634,146.423c-.177,0-.351-.001-.519-.004h-48.305c4.574,5.279,8.102,11.487,10.231,18.311h32.062c25.026,0,37.255-.984,49.87-10.42,15.01-18.36,5.888-32.194,5.888-32.194-13.989,19.525-38.953,24.308-49.226,24.308h0Z"/>
  <path class="st0" d="M226.93,36.529c7.73,0,12.561,3.04,13.086,3.387l.752.496c3.361-.605,8.657-.866,13.986,1.555-1.686-1.921-3.481-3.683-5.41-5.208-5.648-4.464-12.327-7.095-19.97-7.096-5.022,0-10.461,1.141-16.296,3.639-1.479,2.01-2.941,4.799-3.072,8.052,5.572-3.198,11.24-4.826,16.925-4.826h0Z"/>
  <path class="st0" d="M237.893,43.132s-4.167-2.749-10.963-2.749c-5.585,0-12.947,1.864-21.229,8.631-9.446,12.62-10.43,24.848-10.43,49.883v32.062c6.826,2.13,13.036,5.66,18.316,10.236v-48.323c-.165-9.926,4.442-35.51,24.307-49.739h0Z"/>
  <path class="st0" d="M227.88,134.851l-7.713,7.713h47.012c.148.003.3.004.455.004,8.297,0,32.752-4.078,46.093-22.698l2.34-3.265c.316-3.401-.051-8.097-3.071-12.458-7.927,25.311-35.725,30.713-45.273,30.713-.173,0-.339-.002-.499-.005h-38.219s-.45,0-1.124-.004h0Z"/>
  <path class="st0" d="M243.362,43.957l-3.224,2.31c-19.028,13.629-22.836,38.217-22.697,46.605v46.967l7.71-7.71v-39.366c-.194-9.031,4.938-37.683,30.696-45.76-4.347-3-9.073-3.36-12.485-3.046Z"/>
  <polygon class="st0" points="258.196 46.333 258.196 46.333 258.197 46.333 258.196 46.333"/>
  <path class="st0" d="M181.928,231.31v115.577c15.09-8.662,20.663-23.504,22.604-31.165-12.497-15.228-13.116-29.583-13.116-54.619v-31.038c-3.069.7-6.239,1.125-9.488,1.246h0Z"/>
  <path class="st0" d="M240.764,319.591l-.748.493c-.526.347-5.357,3.387-13.086,3.387-5.685,0-11.353-1.628-16.925-4.826.132,3.253,1.593,6.042,3.072,8.052,5.835,2.497,11.275,3.639,16.296,3.639,7.644,0,14.322-2.631,19.97-7.096,1.928-1.524,3.721-3.284,5.406-5.203-3.264,1.482-6.519,1.975-9.323,1.975-1.773,0-3.362-.187-4.663-.421h0Z"/>
  <path class="st0" d="M313.727,240.129c-13.34-18.619-37.795-22.697-46.093-22.698-.156,0-.307.001-.519.004h-46.949l7.713,7.713c.674-.004,1.125-.004,1.125-.004h38.219c.16-.003.327-.005.499-.005,9.546,0,37.345,5.4,45.273,30.712,3.02-4.36,3.387-9.056,3.071-12.457l-2.34-3.265h0Z"/>
  <path class="st0" d="M8.729,181.928H0c6.822,14.269,21.092,25.072,29.437,29.299,1.916-1.671,4.829-3.684,8.475-4.598-9.067-3.219-21.654-10.124-29.182-24.7h-.001Z"/>
  <path class="st0" d="M226.93,319.617c6.774,0,10.935-2.732,10.96-2.748v-.003c-19.862-14.229-24.469-39.811-24.304-49.737v-48.324c-5.28,4.576-11.489,8.105-18.316,10.236v32.062c0,25.036.984,37.264,10.431,49.884,8.283,6.767,15.643,8.63,21.228,8.63h0Z"/>
  <path class="st0" d="M181.928,351.273v8.728c14.269-6.82,25.073-21.086,29.302-29.43-1.672-1.912-3.689-4.819-4.605-8.456-3.222,9.064-10.129,21.637-24.697,29.158Z"/>
  <path class="st0" d="M330.568,148.776c-1.916,1.674-4.841,3.683-8.483,4.595,9.067,3.218,21.657,10.123,29.185,24.702h8.73c-6.821-14.266-21.086-25.068-29.432-29.296h0Z"/>
  <path class="st0" d="M310.973,205.692c-12.615-9.438-24.843-10.421-49.871-10.421h-32.062c-2.13,6.824-5.658,13.032-10.231,18.311h48.305c.169-.003.341-.004.519-.004,10.275,0,35.238,4.784,49.226,24.308,0,0,9.122-13.833-5.887-32.193h0Z"/>
  <path class="st0" d="M213.586,213.581h.013c8.587-8.592,13.899-20.457,13.905-33.563v-.037c-.005-13.106-5.317-24.971-13.904-33.563h-.013v-.013c-8.596-8.594-20.47-13.91-33.586-13.91s-24.99,5.315-33.586,13.91v.013h-.013c-8.591,8.596-13.905,20.468-13.905,33.581s5.314,24.986,13.905,33.581h.013v.013c8.592,8.59,20.459,13.904,33.568,13.909h.037c13.108-.005,24.975-5.319,33.568-13.909v-.013h-.002ZM170.082,218.553l-.365.248c-.402.273-.95.129-1.169-.306-.782-1.547-2.674-4.801-5.19-5.811-3.343-1.342-14.819-3.707-20.65-16.051-5.766-12.205-5.148-27.194,1.635-37.101,6.783-9.907,15.03-12.835,20.643-12.835,4.323,0,8.619,1.163,11.639,5.209.98,1.312,1.748,2.594,2.549,2.836,1.408.425,1.689,2.311.458,3.117-1.582,1.036-3.466,1.779-5.296,3.784-1.062,1.163-3.008.37-3.006-1.205v-.114c0-3.807-3.123-5.271-6.954-5.271s-13.933,3.672-13.933,23.986c0,4.904,1.903,23.461,14.201,23.461,4.557,0,8.166-3.802,9.906-6.057.64-.83,1.851-.928,2.602-.197l1.844,1.796c.719.7.702,1.863-.043,2.535-2.983,2.691-9.722,9.201-9.722,13.077,0,0-.26,1.777,1.083,3.819.234.356.121.838-.231,1.077v.003ZM204.197,212.075c-.539,1.015-1.91,1.188-2.755.408-2.2-2.034-6.536-4.991-13.14-4.991-6.444,0-9.708,4.588-11.895,7.961-.944,1.456-3.008.848-3.037-.887-.028-1.645.453-3.648,2.095-5.811,4.398-5.79,7.847-6.217,7.847-10.308v-43.039s.181-1.973-4.651-5.371c-.864-.608-1.047-1.824-.339-2.608,1.083-1.2,3.067-2.611,6.406-2.611,5.807,0,4.49,4.294,13.274,4.294,0,0,18.288.098,18.288,14.738,0,4.726-3.534,7.912-6.128,9.614-1.053.691-1.025,2.23.044,2.896,3.437,2.141,8.894,6.884,8.931,15.426,0,.059-.002.11-.007.168-.068.715-.622,5.99-2.517,9.606-.197.376-.537.649-.939.786-1.927.66-8.004,3.187-11.477,9.726v.003Z"/>
  <path class="st0" d="M318.654,210.008c9.749,16.963,1.812,29.411,1.424,29.999l-.492.745c.606,3.355.871,8.647-1.542,13.975,1.915-1.682,3.67-3.471,5.191-5.394,7.398-9.357,9.757-21.546,3.456-36.261-2.004-1.471-4.785-2.923-8.038-3.065h0Z"/>
  <path class="st0" d="M322.087,206.628c3.645.915,6.559,2.928,8.475,4.598,8.345-4.226,22.615-15.03,29.438-29.299h-8.73c-7.528,14.577-20.117,21.482-29.183,24.701h0Z"/>
  <path class="st0" d="M225.151,267.237v-39.365l-7.71-7.71v47.031c-.139,8.324,3.669,32.912,22.697,46.541l3.257,2.333c3.4.316,8.095-.051,12.454-3.069-25.76-8.075-30.892-36.729-30.698-45.76h0Z"/>
  <path class="st0" d="M122.109,316.866v.004c.04.025,4.196,2.747,10.961,2.747,5.585,0,12.947-1.864,21.229-8.631,9.446-12.619,10.43-24.848,10.43-49.883v-32.062c-6.826-2.13-13.036-5.66-18.316-10.236v48.324c.165,9.926-4.442,35.508-24.305,49.737h0Z"/>
  <path class="st0" d="M116.605,316.067l3.257-2.333c19.028-13.629,22.836-38.217,22.697-46.605v-46.967l-7.71,7.71v39.365c.194,9.032-4.938,37.685-30.698,45.76,4.361,3.017,9.054,3.384,12.455,3.069h0Z"/>
  <path class="st0" d="M40.414,240.753l-.492-.746c-.388-.588-8.327-13.039,1.427-30.004-3.247.128-6.029,1.583-8.036,3.059-6.306,14.72-3.948,26.912,3.452,36.272,1.521,1.923,3.276,3.712,5.191,5.394-2.412-5.328-2.148-10.62-1.542-13.975Z"/>
  <path class="st0" d="M133.07,323.471c-7.73,0-12.561-3.04-13.086-3.387l-.747-.493c-1.301.234-2.89.421-4.663.421-2.805,0-6.059-.492-9.323-1.974,1.685,1.919,3.478,3.679,5.406,5.203,5.648,4.464,12.327,7.096,19.97,7.096,5.022,0,10.461-1.141,16.297-3.639,1.479-2.01,2.94-4.799,3.071-8.052-5.572,3.198-11.239,4.825-16.925,4.825h0Z"/>
  <path class="st0" d="M132.121,225.149l7.713-7.713h-47.012c-.148-.003-.3-.004-.455-.004-8.297,0-32.751,4.077-46.093,22.698l-2.339,3.265c-.316,3.401.051,8.097,3.071,12.457,7.927-25.31,35.725-30.712,45.272-30.712.173,0,.339.002.499.005h38.219s.45,0,1.125.004Z"/>
  <path class="st0" d="M92.366,213.577c.177,0,.351.001.519.004h48.305c-4.574-5.279-8.102-11.487-10.231-18.311h-32.062c-25.027,0-37.255.984-49.87,10.421-15.01,18.36-5.888,32.194-5.888,32.194,13.989-19.525,38.953-24.308,49.226-24.308h0Z"/>
  <path class="st0" d="M153.375,322.114c-.915,3.637-2.933,6.545-4.605,8.457,4.228,8.344,15.032,22.609,29.302,29.43v-8.728c-14.568-7.521-21.475-20.094-24.697-29.158h0Z"/>
  <path class="st0" d="M194.376,175.392h.369c.181,0,.367-.028.539-.081,9.719-3.009,9.718-9.313,9.718-9.313,0-9.236-7.65-8.998-7.65-8.998h-2.976c-.961,0-1.741.779-1.741,1.741v14.911c0,.961.779,1.741,1.741,1.741h0Z"/>
  <path class="st0" d="M198.663,179.909h-6.328v12.646c0,1.447-.229,2.894-.758,4.241-.12.306-.258.627-.417.957-.568,1.181.328,2.528,1.638,2.489,2.491-.073,5.859.185,8.518,1.695,0,0,.301-.192.776-.558,1.764-1.36,5.922-5.121,5.922-10.344,0-6.629-5.38-11.126-9.352-11.126h.001Z"/>
  <path class="st0" d="M168.585,261.103c0,25.036-.619,39.391-13.116,54.62,1.941,7.662,7.514,22.503,22.604,31.165v-115.577c-3.249-.121-6.419-.546-9.488-1.246v31.038Z"/>
  <g>
    <path class="st0" d="M339.175,176.918h-107.594c-.145-2.248-.421-4.452-.827-6.628h26.96c24.654,0,38.634-.624,53.79-13.4,7.411,2.103,19.825,7.382,27.671,20.028Z"/>
    <path class="st0" d="M231.581,183.082h107.594c-7.846,12.646-20.26,17.925-27.671,20.028-15.155-12.777-29.135-13.4-53.79-13.4h-26.96c.406-2.175.682-4.38.827-6.628Z"/>
    <path class="st0" d="M321.104,206.184c8.513-3.756,18.679-10.63,25.147-23.102h5.627c-6.425,12.429-18.592,21.957-26.438,26.235-1.088-.986-2.552-2.132-4.336-3.133Z"/>
    <path class="st0" d="M346.252,176.918c-6.468-12.472-16.634-19.346-25.133-23.102,1.769-1.001,3.22-2.146,4.322-3.133,7.846,4.278,20.013,13.806,26.438,26.235h-5.627Z"/>
    <path class="st0" d="M316.739,149.088c7.28-15.837-.073-27.381-.45-27.961l-1.015-1.523c.232-2.639.131-5.888-.928-9.282,1.03,1.03,2.016,2.103,2.915,3.234,6.686,8.455,9.079,19.317,4.264,32.355-1.059.986-2.726,2.291-4.786,3.176Z"/>
    <path class="st0" d="M316.29,238.873c.377-.58,7.744-12.139.435-27.99,2.059.87,3.727,2.19,4.786,3.191,4.829,13.038,2.436,23.915-4.249,32.369-.899,1.131-1.885,2.204-2.915,3.234,1.059-3.394,1.16-6.642.928-9.282l1.015-1.523Z"/>
    <path class="st0" d="M311.156,124.536c.073.116,7.396,11.384-2.77,26.917-13.226,11.573-24.596,12.69-50.671,12.69h-28.541c-1.943-6.004-4.945-11.515-8.788-16.33h43.087c.174,0,.334.015.508.015,9.847,0,33.762-4.583,47.162-23.305l.015.015Z"/>
    <path class="st0" d="M308.386,208.563c10.079,15.387,2.958,26.612,2.77,26.902h-.015c-13.4-18.694-37.315-23.291-47.162-23.291-.174,0-.334.015-.508.015h-43.087c3.843-4.815,6.845-10.326,8.788-16.33h28.541c26.075,0,37.445,1.117,50.671,12.704Z"/>
    <path class="st0" d="M309.227,116.632l-3.089,4.307c-12.182,16.997-34.559,20.724-42.159,20.724h-41.274l4.916-4.931h36.445c8.948,0,34.661-4.96,42.869-27.932,1.61,2.668,2.204,5.424,2.291,7.831Z"/>
    <path class="st0" d="M306.138,239.061l3.089,4.307c-.087,2.407-.682,5.163-2.291,7.831-8.208-22.972-33.921-27.932-42.869-27.932h-36.445l-4.916-4.931h41.259c7.614,0,30.006,3.727,42.173,20.724Z"/>
    <path class="st0" d="M243.313,50.791c2.422.073,5.192.653,7.86,2.262-23.363,8.368-28.091,34.864-27.903,43.333v35.995l-4.931,4.931v-40.911c-.116-7.106,3.437-30.18,20.724-42.565l4.249-3.046Z"/>
    <path class="st0" d="M251.174,306.947c-2.668,1.61-5.438,2.19-7.846,2.277l-4.264-3.06c-17.287-12.385-20.84-35.458-20.724-42.565v-40.911l4.931,4.931v35.995c-.189,8.469,4.539,34.965,27.903,43.333Z"/>
    <path class="st0" d="M235.453,48.818l.015.015c-19.027,13.647-23.436,38.156-23.291,47.669v43.116c-4.815-3.843-10.326-6.86-16.315-8.788v-28.541c0-26.119,1.117-37.489,12.762-50.758,6.309-4.104,11.906-5.337,16.344-5.337,6.367,0,10.311,2.509,10.485,2.625Z"/>
    <path class="st0" d="M212.177,263.498c-.145,9.514,4.264,34.023,23.291,47.669l-.015.015c-.276.174-4.206,2.625-10.485,2.625-4.438,0-10.036-1.233-16.344-5.337-11.645-13.27-12.762-24.64-12.762-50.758v-28.541c5.99-1.929,11.5-4.945,16.315-8.788v43.116Z"/>
    <path class="st0" d="M238.861,43.685c-.566-.363-5.757-3.655-13.893-3.655-4.728,0-9.427,1.088-14.053,3.205.87-2.059,2.19-3.727,3.191-4.786,4.684-1.726,9.093-2.523,13.212-2.523,7.324,0,13.719,2.509,19.129,6.787,1.146.899,2.219,1.914,3.263,2.958-3.379-1.073-6.642-1.189-9.282-.957l-1.566-1.03Z"/>
    <path class="st0" d="M224.968,319.97c8.121,0,13.328-3.292,13.893-3.655l1.566-1.03c.711.058,1.479.102,2.277.102,2.132,0,4.539-.276,7.019-1.059-1.059,1.044-2.132,2.045-3.278,2.958-5.409,4.278-11.805,6.787-19.129,6.787-4.119,0-8.527-.798-13.212-2.523-1.001-1.059-2.32-2.726-3.191-4.786,4.626,2.117,9.325,3.205,14.053,3.205Z"/>
    <path class="st0" d="M206.84,190.58c0,5.003-3.974,8.6-5.67,9.905-.45.348-.74.537-.74.537-2.552-1.45-5.772-1.697-8.165-1.624-1.262.044-2.117-1.247-1.566-2.393.145-.305.276-.624.392-.914.508-1.291.725-2.668.725-4.061v-12.11h6.062c3.814,0,8.962,4.307,8.962,10.659Z"/>
    <path class="st0" d="M203.954,166.578s0,6.048-9.311,8.933c-.16.044-.348.073-.508.073h-.363c-.914,0-1.668-.74-1.668-1.668v-14.285c0-.928.754-1.668,1.668-1.668h2.857s7.324-.232,7.324,8.614Z"/>
    <path class="st0" d="M206.202,38.884c-3.756-8.498-10.645-18.679-23.117-25.162v-5.627c12.429,6.425,21.971,18.607,26.249,26.452-1.001,1.102-2.132,2.552-3.133,4.336Z"/>
    <path class="st0" d="M183.085,346.278c12.472-6.483,19.361-16.663,23.117-25.162,1.001,1.784,2.132,3.234,3.133,4.336-4.278,7.846-13.821,20.028-26.249,26.452v-5.627Z"/>
    <path class="st0" d="M183.085,20.8c12.661,7.846,17.94,20.274,20.042,27.685-12.806,15.155-13.415,29.135-13.415,53.804v26.96c-2.175-.406-4.38-.696-6.628-.827V20.8Z"/>
    <path class="st0" d="M203.127,311.515c-2.103,7.411-7.382,19.839-20.042,27.685v-107.623c2.248-.131,4.452-.421,6.628-.827v26.96c0,24.669.609,38.649,13.415,53.804Z"/>
    <path class="st0" d="M179.517,198.817c.102-.522-.058-1.117-.479-1.523l-1.769-1.726c-.711-.696-1.871-.609-2.494.189-1.668,2.161-5.119,5.801-9.485,5.801-11.79,0-13.618-17.78-13.618-22.479,0-19.462,9.688-22.986,13.357-22.986s6.657,1.407,6.657,5.061v.102c0,1.508,1.871,2.277,2.886,1.16,1.755-1.929,3.553-2.639,5.076-3.626.508-.334.74-.87.74-1.392h2.784v40.273c0,.493-.058.928-.145,1.32l-3.51-.174Z"/>
    <path d="M173.644,213.116c-.029-1.566.435-3.495,2.016-5.569,3.684-4.844,6.671-5.757,7.367-8.556.087-.392.145-.827.145-1.32v-41.23s.174-1.9-4.452-5.148c-.827-.58-1.001-1.755-.334-2.494,1.044-1.16,2.944-2.509,6.149-2.509,5.554,0,4.293,4.119,12.719,4.119,0,0,17.519.087,17.519,14.125,0,4.525-3.379,7.57-5.873,9.209-1.001.653-.986,2.132.044,2.77,3.292,2.059,8.527,6.599,8.556,14.778v.16c-.073.696-.609,5.743-2.422,9.209-.189.363-.508.624-.899.754-1.842.638-7.672,3.06-10.993,9.325-.522.972-1.827,1.131-2.639.392-2.103-1.958-6.265-4.786-12.588-4.786-6.178,0-9.311,4.394-11.399,7.628-.899,1.392-2.886.812-2.915-.856ZM197.877,179.92h-6.062v12.11c0,1.392-.218,2.77-.725,4.061-.116.29-.247.609-.392.914-.551,1.146.305,2.436,1.566,2.393,2.393-.073,5.612.174,8.165,1.624,0,0,.29-.189.74-.537,1.697-1.305,5.67-4.902,5.67-9.905,0-6.352-5.148-10.659-8.962-10.659ZM193.773,175.584h.363c.16,0,.348-.029.508-.073,9.311-2.886,9.311-8.933,9.311-8.933,0-8.846-7.324-8.614-7.324-8.614h-2.857c-.914,0-1.668.74-1.668,1.668v14.285c0,.928.754,1.668,1.668,1.668Z"/>
    <path class="st0" d="M176.921,231.578v107.623c-12.661-7.846-17.94-20.274-20.042-27.685,12.791-15.155,13.415-29.135,13.415-53.804v-26.96c2.161.406,4.38.696,6.628.827Z"/>
    <path class="st0" d="M176.921,20.8v107.623c-2.248.131-4.467.421-6.628.827v-26.96c0-24.669-.624-38.649-13.415-53.804,2.103-7.411,7.382-19.839,20.042-27.685Z"/>
    <path class="st0" d="M175.66,207.547c-1.581,2.074-2.045,4.003-2.016,5.569.029,1.668,2.016,2.248,2.915.856,2.088-3.234,5.221-7.628,11.399-7.628,6.323,0,10.485,2.828,12.588,4.786.812.74,2.117.58,2.639-.392,3.321-6.265,9.151-8.687,10.993-9.325.392-.131.711-.392.899-.754,1.813-3.466,2.349-8.513,2.422-9.209v-.16c-.029-8.179-5.264-12.719-8.556-14.778-1.03-.638-1.044-2.117-.044-2.77,2.494-1.639,5.873-4.684,5.873-9.209,0-14.038-17.519-14.125-17.519-14.125-8.426,0-7.164-4.119-12.719-4.119-3.205,0-5.105,1.349-6.149,2.509-.667.74-.493,1.914.334,2.494,4.626,3.249,4.452,5.148,4.452,5.148v.957h-2.784c0-.682-.406-1.363-1.175-1.595s-1.508-1.465-2.451-2.726c-2.886-3.872-7.005-4.989-11.152-4.989-5.38,0-13.27,2.813-19.781,12.298-6.497,9.499-7.092,23.856-1.566,35.56,5.598,11.819,16.591,14.082,19.796,15.373,2.407.972,4.22,4.09,4.974,5.569.203.421.725.551,1.117.29l.348-.232c.334-.232.45-.696.218-1.03-1.276-1.958-1.03-3.669-1.03-3.669,0-3.713,6.454-9.949,9.311-12.53.276-.232.45-.566.522-.899l3.51.174c-.696,2.799-3.684,3.713-7.367,8.556ZM225.519,179.978v.044c0,12.559-5.105,23.929-13.328,32.166h-.015c-4.104,4.119-9.006,7.454-14.444,9.746-5.438,2.306-11.428,3.582-17.707,3.582h-.044c-12.559,0-23.929-5.09-32.166-13.328-4.119-4.119-7.454-9.021-9.76-14.473-2.291-5.453-3.568-11.428-3.568-17.722,0-12.559,5.09-23.944,13.328-32.181,4.119-4.119,9.021-7.454,14.473-9.76,5.438-2.291,11.428-3.568,17.707-3.568,12.574,0,23.958,5.09,32.181,13.328h.015c8.223,8.237,13.328,19.607,13.328,32.166Z"/>
    <path d="M170.497,216.945l-.348.232c-.392.261-.914.131-1.117-.29-.754-1.479-2.567-4.597-4.974-5.569-3.205-1.291-14.198-3.553-19.796-15.373-5.525-11.703-4.931-26.061,1.566-35.56,6.512-9.485,14.401-12.298,19.781-12.298,4.148,0,8.266,1.117,11.152,4.989.943,1.262,1.682,2.494,2.451,2.726s1.175.914,1.175,1.595c0,.522-.232,1.059-.74,1.392-1.523.986-3.321,1.697-5.076,3.626-1.015,1.117-2.886.348-2.886-1.16v-.102c0-3.655-2.987-5.061-6.657-5.061s-13.357,3.524-13.357,22.986c0,4.699,1.827,22.479,13.618,22.479,4.365,0,7.817-3.64,9.485-5.801.624-.798,1.784-.885,2.494-.189l1.769,1.726c.421.406.58,1.001.479,1.523-.073.334-.247.667-.522.899-2.857,2.581-9.311,8.817-9.311,12.53,0,0-.247,1.711,1.03,3.669.232.334.116.798-.218,1.03Z"/>
    <path class="st0" d="M164.13,229.171v28.541c0,26.119-1.117,37.489-12.748,50.758-6.309,4.104-11.921,5.337-16.359,5.337-6.265,0-10.195-2.436-10.471-2.61l-.015-.029c19.027-13.647,23.436-38.156,23.276-47.669v-43.116c4.815,3.843,10.326,6.86,16.315,8.788Z"/>
    <path class="st0" d="M164.13,102.289v28.541c-5.99,1.929-11.5,4.945-16.315,8.788v-43.116c.16-9.514-4.249-34.023-23.276-47.669l.015-.029c.276-.174,4.206-2.61,10.471-2.61,4.438,0,10.05,1.233,16.359,5.337,11.631,13.27,12.748,24.64,12.748,50.758Z"/>
    <path class="st0" d="M176.921,13.723c-12.487,6.483-19.361,16.649-23.117,25.162-1.001-1.784-2.146-3.234-3.133-4.336,4.278-7.846,13.806-20.028,26.249-26.452v5.627Z"/>
    <path class="st0" d="M176.921,351.905c-12.443-6.425-21.971-18.607-26.249-26.452.986-1.102,2.132-2.552,3.133-4.336,3.756,8.498,10.63,18.679,23.117,25.162v5.627Z"/>
    <path class="st0" d="M141.666,263.498v.102c.116,7.106-3.437,30.18-20.724,42.565l-4.264,3.06c-2.407-.087-5.177-.667-7.86-2.277,23.378-8.368,28.091-34.864,27.917-43.333v-35.995l4.931-4.931v40.81Z"/>
    <path class="st0" d="M141.666,96.502v40.81l-4.931-4.931v-35.995c.174-8.469-4.539-34.965-27.917-43.333,2.668-1.61,5.453-2.19,7.86-2.277l4.264,3.06c17.287,12.385,20.84,35.458,20.724,42.565v.102Z"/>
    <path class="st0" d="M96.52,147.812h43.101c-3.858,4.815-6.86,10.326-8.788,16.33h-28.541c-26.075,0-37.46-1.117-50.686-12.69-10.079-15.402-2.944-26.626-2.755-26.917h.015c13.4,18.694,37.315,23.291,47.162,23.291.174,0,.334-.015.493-.015Z"/>
    <path class="st0" d="M139.621,212.188h-43.101c-.16,0-.319-.015-.493-.015-9.847,0-33.762,4.583-47.162,23.291h-.015c-.189-.276-7.324-11.5,2.755-26.917,13.226-11.573,24.611-12.69,50.686-12.69h28.541c1.929,6.004,4.931,11.515,8.788,16.33Z"/>
    <path class="st0" d="M137.301,218.337l-4.931,4.931h-36.43c-8.962,0-34.661,4.96-42.869,27.932-1.61-2.668-2.204-5.424-2.291-7.831l3.075-4.307c12.182-16.997,34.574-20.724,42.173-20.724h41.274Z"/>
    <path class="st0" d="M137.301,141.663h-41.274c-7.599,0-29.991-3.727-42.173-20.724l-3.075-4.307c.087-2.407.682-5.163,2.291-7.831,8.208,22.972,33.907,27.932,42.869,27.932h36.43l4.931,4.931Z"/>
    <path class="st0" d="M132.689,324.074c-7.324,0-13.719-2.509-19.143-6.787-1.131-.914-2.219-1.914-3.263-2.958,2.465.783,4.873,1.059,7.019,1.059.798,0,1.552-.044,2.277-.102l1.552,1.03c.566.363,5.772,3.655,13.893,3.655,4.742,0,9.441-1.088,14.067-3.205-.885,2.059-2.204,3.727-3.191,4.786-4.684,1.726-9.093,2.523-13.212,2.523Z"/>
    <path class="st0" d="M132.689,35.926c4.119,0,8.527.798,13.212,2.523.986,1.059,2.306,2.726,3.191,4.786-4.626-2.117-9.325-3.205-14.067-3.205-8.121,0-13.328,3.292-13.893,3.655l-1.552,1.03c-2.639-.232-5.902-.116-9.296.957,1.059-1.044,2.132-2.059,3.263-2.958,5.424-4.278,11.819-6.787,19.143-6.787Z"/>
    <path d="M179.923,353.311c.029.015.044.029.073.029s.058-.015.087-.029h-.16ZM351.879,176.918c-6.425-12.429-18.592-21.957-26.438-26.235-1.102.986-2.552,2.132-4.322,3.133,8.498,3.756,18.665,10.63,25.133,23.102h5.627ZM176.921,8.096c-12.443,6.425-21.971,18.607-26.249,26.452.986,1.102,2.132,2.552,3.133,4.336,3.756-8.513,10.63-18.679,23.117-25.162v-5.627ZM176.921,351.905v-5.627c-12.487-6.483-19.361-16.663-23.117-25.162-1.001,1.784-2.146,3.234-3.133,4.336,4.278,7.846,13.806,20.028,26.249,26.452ZM183.085,351.905c12.429-6.425,21.971-18.607,26.249-26.452-1.001-1.102-2.132-2.552-3.133-4.336-3.756,8.498-10.645,18.679-23.117,25.162v5.627ZM103.554,302.132c23.001-5.801,27.163-31.76,27.018-38.388v-34.327h-34.632c-8.107,0-32.485,4.96-38.054,27.018l-2.175,8.643-7.309-5.09c-4.148-2.886-7.672-6.164-10.485-9.717-5.801-7.338-11.181-19.187-6.178-35.473-10.021-5.409-24.437-17.461-30.731-32.413L.006,179.993l1.001-2.378c6.294-14.952,20.709-27.004,30.731-32.413-5.003-16.286.377-28.135,6.178-35.473,2.813-3.553,6.338-6.831,10.485-9.717l7.309-5.09,2.175,8.643c5.569,22.058,29.948,27.018,38.054,27.018h34.632v-34.327c.145-6.628-4.017-32.587-27.018-38.388l-8.629-2.19,5.09-7.309c2.886-4.133,6.164-7.672,9.717-10.485,6.831-5.38,14.546-8.121,22.957-8.121,4.061,0,8.252.653,12.501,1.958,5.409-10.021,17.461-24.451,32.427-30.745l2.378-1.001,2.393,1.001c14.952,6.294,27.018,20.724,32.413,30.745,4.264-1.305,8.455-1.958,12.516-1.958,8.411,0,16.127,2.741,22.943,8.121,3.568,2.813,6.831,6.352,9.717,10.485l5.105,7.309-8.643,2.19c-22.986,5.801-27.163,31.76-27.018,38.388v34.327h34.646c8.092,0,32.471-4.96,38.04-27.018l2.19-8.643,7.309,5.09c4.133,2.886,7.672,6.164,10.485,9.717,5.786,7.338,11.167,19.187,6.178,35.473,10.007,5.409,24.437,17.461,30.731,32.413l1.001,2.378-1.001,2.393c-6.294,14.952-20.724,27.004-30.731,32.413,4.989,16.286-.392,28.135-6.178,35.473-2.813,3.553-6.352,6.831-10.485,9.717l-7.309,5.09-2.19-8.643c-5.569-22.058-29.948-27.018-38.04-27.018h-34.646v34.327c-.145,6.628,4.032,32.587,27.018,38.388l8.643,2.19-5.105,7.309c-2.886,4.133-6.149,7.672-9.717,10.485-6.816,5.38-14.531,8.121-22.943,8.121-4.061,0-8.252-.653-12.516-1.958-5.395,10.021-17.461,24.451-32.413,30.745l-2.393,1.001-2.378-1.001c-14.967-6.294-27.018-20.724-32.427-30.745-4.249,1.305-8.44,1.958-12.501,1.958-8.411,0-16.141-2.741-22.957-8.121-3.553-2.813-6.831-6.352-9.717-10.485l-5.09-7.309,8.629-2.19ZM6.692,180.022v-.044l-.015.015c0,.015.015.029.015.029ZM183.085,8.096v5.627c12.472,6.483,19.361,16.663,23.117,25.162,1.001-1.784,2.132-3.234,3.133-4.336-4.278-7.846-13.821-20.028-26.249-26.452ZM8.128,176.918h5.612c6.483-12.472,16.649-19.346,25.147-23.102-1.784-1.001-3.234-2.146-4.322-3.133-7.846,4.278-20.028,13.806-26.438,26.235ZM179.923,6.689h.16c-.029-.015-.058-.029-.087-.029s-.044.015-.073.029ZM120.942,306.164c17.287-12.385,20.84-35.458,20.724-42.565v-40.911l-4.931,4.931v35.995c.174,8.469-4.539,34.965-27.917,43.333,2.683,1.61,5.453,2.19,7.86,2.277l4.264-3.06ZM351.879,183.082h-5.627c-6.468,12.472-16.634,19.346-25.147,23.102,1.784,1.001,3.249,2.146,4.336,3.133,7.846-4.278,20.013-13.806,26.438-26.235ZM8.128,183.082c6.41,12.429,18.592,21.957,26.438,26.235,1.088-.986,2.552-2.132,4.336-3.118-8.513-3.756-18.679-10.645-25.162-23.117h-5.612ZM231.581,176.918h107.594c-7.846-12.646-20.26-17.925-27.671-20.028-15.155,12.777-29.135,13.4-53.79,13.4h-26.96c.406,2.175.682,4.38.827,6.628ZM339.175,183.082h-107.594c-.145,2.248-.421,4.452-.827,6.628h26.96c24.654,0,38.634.624,53.79,13.4,7.411-2.103,19.825-7.382,27.671-20.028ZM321.525,145.912c4.815-13.038,2.422-23.9-4.264-32.355-.899-1.131-1.885-2.204-2.915-3.234,1.059,3.394,1.16,6.642.928,9.282l1.015,1.523c.377.58,7.73,12.124.45,27.961,2.059-.885,3.727-2.19,4.786-3.176ZM317.261,246.443c6.686-8.455,9.079-19.332,4.249-32.369-1.059-1.001-2.726-2.32-4.786-3.191,7.309,15.851-.058,27.41-.435,27.99l-1.015,1.523c.232,2.639.131,5.888-.928,9.282,1.03-1.03,2.016-2.103,2.915-3.234ZM308.386,151.452c10.166-15.532,2.842-26.8,2.77-26.917l-.015-.015c-13.4,18.723-37.315,23.305-47.162,23.305-.174,0-.334-.015-.508-.015h-43.087c3.843,4.815,6.845,10.326,8.788,16.33h28.541c26.075,0,37.445-1.117,50.671-12.69ZM311.156,235.465c.189-.29,7.309-11.515-2.77-26.902-13.226-11.587-24.596-12.704-50.671-12.704h-28.541c-1.943,6.004-4.945,11.515-8.788,16.33h43.087c.174,0,.334-.015.508-.015,9.847,0,33.762,4.597,47.162,23.291h.015ZM306.138,120.939l3.089-4.307c-.087-2.407-.682-5.163-2.291-7.831-8.208,22.972-33.921,27.932-42.869,27.932h-36.445l-4.916,4.931h41.274c7.599,0,29.977-3.727,42.159-20.724ZM309.227,243.368l-3.089-4.307c-12.168-16.997-34.559-20.724-42.173-20.724h-41.259l4.916,4.931h36.445c8.948,0,34.661,4.96,42.869,27.932,1.61-2.668,2.204-5.424,2.291-7.831ZM249.709,45.671c-1.044-1.044-2.117-2.059-3.263-2.958-5.409-4.278-11.805-6.787-19.129-6.787-4.119,0-8.527.798-13.212,2.523-1.001,1.059-2.32,2.726-3.191,4.786,4.626-2.117,9.325-3.205,14.053-3.205,8.136,0,13.328,3.292,13.893,3.655l1.566,1.03c2.639-.232,5.902-.116,9.282.957ZM246.446,317.287c1.146-.914,2.219-1.914,3.278-2.958-2.48.783-4.887,1.059-7.019,1.059-.798,0-1.566-.044-2.277-.102l-1.566,1.03c-.566.363-5.772,3.655-13.893,3.655-4.728,0-9.427-1.088-14.053-3.205.87,2.059,2.19,3.727,3.191,4.786,4.684,1.726,9.093,2.523,13.212,2.523,7.324,0,13.719-2.509,19.129-6.787ZM251.174,53.053c-2.668-1.61-5.438-2.19-7.86-2.262l-4.249,3.046c-17.287,12.385-20.84,35.458-20.724,42.565v40.911l4.931-4.931v-35.995c-.189-8.469,4.539-34.965,27.903-43.333ZM243.328,309.224c2.407-.087,5.177-.667,7.846-2.277-23.363-8.368-28.091-34.864-27.903-43.333v-35.995l-4.931-4.931v40.911c-.116,7.106,3.437,30.18,20.724,42.565l4.264,3.06ZM235.453,311.182l.015-.015c-19.027-13.647-23.436-38.156-23.291-47.669v-43.116c-4.815,3.843-10.326,6.86-16.315,8.788v28.541c0,26.119,1.117,37.489,12.762,50.758,6.309,4.104,11.906,5.337,16.344,5.337,6.28,0,10.21-2.451,10.485-2.625ZM235.468,48.833l-.015-.015c-.174-.116-4.119-2.625-10.485-2.625-4.438,0-10.036,1.233-16.344,5.337-11.645,13.27-12.762,24.64-12.762,50.758v28.541c5.99,1.929,11.5,4.945,16.315,8.788v-43.116c-.145-9.514,4.264-34.023,23.291-47.669ZM225.519,180.022v-.044c0-12.559-5.105-23.929-13.328-32.166h-.015c-8.223-8.237-19.607-13.328-32.181-13.328-6.28,0-12.269,1.276-17.707,3.568-5.453,2.306-10.355,5.641-14.473,9.76-8.237,8.237-13.328,19.622-13.328,32.181,0,6.294,1.276,12.269,3.568,17.722,2.306,5.453,5.641,10.355,9.76,14.473,8.237,8.237,19.607,13.328,32.166,13.328h.044c6.28,0,12.269-1.276,17.707-3.582,5.438-2.291,10.34-5.627,14.444-9.746h.015c8.223-8.237,13.328-19.607,13.328-32.166ZM203.127,48.485c-2.103-7.411-7.382-19.839-20.042-27.685v107.623c2.248.131,4.452.421,6.628.827v-26.96c0-24.669.609-38.649,13.415-53.804ZM183.085,339.201c12.661-7.846,17.94-20.274,20.042-27.685-12.806-15.155-13.415-29.135-13.415-53.804v-26.96c-2.175.406-4.38.696-6.628.827v107.623ZM176.921,339.201v-107.623c-2.248-.131-4.467-.421-6.628-.827v26.96c0,24.669-.624,38.649-13.415,53.804,2.103,7.411,7.382,19.839,20.042,27.685ZM176.921,128.422V20.8c-12.661,7.846-17.94,20.274-20.042,27.685,12.791,15.155,13.415,29.135,13.415,53.804v26.96c2.161-.406,4.38-.696,6.628-.827ZM164.13,257.711v-28.541c-5.99-1.929-11.5-4.945-16.315-8.788v43.116c.16,9.514-4.249,34.023-23.276,47.669l.015.029c.276.174,4.206,2.61,10.471,2.61,4.438,0,10.05-1.233,16.359-5.337,11.631-13.27,12.748-24.64,12.748-50.758ZM164.13,130.83v-28.541c0-26.119-1.117-37.489-12.748-50.758-6.309-4.104-11.921-5.337-16.359-5.337-6.265,0-10.195,2.436-10.471,2.61l-.015.029c19.027,13.647,23.436,38.156,23.276,47.669v43.116c4.815-3.843,10.326-6.86,16.315-8.788ZM149.091,43.235c-.885-2.059-2.204-3.727-3.191-4.786-4.684-1.726-9.093-2.523-13.212-2.523-7.324,0-13.719,2.509-19.143,6.787-1.131.899-2.204,1.914-3.263,2.958,3.394-1.073,6.657-1.189,9.296-.957l1.552-1.03c.566-.363,5.772-3.655,13.893-3.655,4.742,0,9.441,1.088,14.067,3.205ZM145.901,321.551c.986-1.059,2.306-2.726,3.191-4.786-4.626,2.117-9.325,3.205-14.067,3.205-8.121,0-13.328-3.292-13.893-3.655l-1.552-1.03c-.725.058-1.479.102-2.277.102-2.146,0-4.554-.276-7.019-1.059,1.044,1.044,2.132,2.045,3.263,2.958,5.424,4.278,11.819,6.787,19.143,6.787,4.119,0,8.527-.798,13.212-2.523ZM141.666,137.312v-40.911c.116-7.106-3.437-30.18-20.724-42.565l-4.264-3.06c-2.407.087-5.192.667-7.86,2.277,23.378,8.368,28.091,34.864,27.917,43.333v35.995l4.931,4.931ZM139.621,147.812h-43.101c-.16,0-.319.015-.493.015-9.847,0-33.762-4.597-47.162-23.291h-.015c-.189.29-7.324,11.515,2.755,26.917,13.226,11.573,24.611,12.69,50.686,12.69h28.541c1.929-6.004,4.931-11.515,8.788-16.33ZM96.52,212.188h43.101c-3.858-4.815-6.86-10.326-8.788-16.33h-28.541c-26.075,0-37.46,1.117-50.686,12.69-10.079,15.416-2.944,26.641-2.755,26.917h.015c13.4-18.708,37.315-23.291,47.162-23.291.174,0,.334.015.493.015ZM132.37,223.268l4.931-4.931h-41.274c-7.599,0-29.991,3.727-42.173,20.724l-3.075,4.307c.087,2.407.682,5.163,2.291,7.831,8.208-22.972,33.907-27.932,42.869-27.932h36.43ZM96.52,141.663h40.781l-4.931-4.931h-36.43c-8.962,0-34.661-4.96-42.869-27.932-1.61,2.668-2.204,5.424-2.291,7.831l3.075,4.307c12.182,16.997,34.574,20.724,42.173,20.724h.493ZM129.252,170.291h-26.96c-24.669,0-38.649-.624-53.804-13.4-7.411,2.103-19.825,7.382-27.656,20.028h107.594c.131-2.248.421-4.452.827-6.628ZM102.292,189.709h26.96c-.406-2.175-.696-4.38-.827-6.628H20.832c7.831,12.646,20.245,17.925,27.656,20.028,15.155-12.777,29.135-13.4,53.804-13.4ZM43.717,121.128l1.001-1.523c-.232-2.639-.116-5.888.943-9.282-1.03,1.03-2.03,2.103-2.915,3.234-6.686,8.455-9.079,19.317-4.264,32.369,1.059.986,2.726,2.306,4.786,3.176-7.295-15.851.058-27.395.45-27.975ZM44.717,240.395l-1.001-1.523c-.392-.58-7.744-12.139-.45-27.99-2.059.885-3.727,2.19-4.786,3.191-4.815,13.038-2.422,23.915,4.264,32.369.885,1.131,1.885,2.204,2.915,3.234-1.059-3.394-1.175-6.642-.943-9.282Z"/>
    <path class="st0" d="M102.292,170.291h26.96c-.406,2.175-.696,4.38-.827,6.628H20.832c7.831-12.646,20.245-17.925,27.656-20.028,15.155,12.777,29.135,13.4,53.804,13.4Z"/>
    <path class="st0" d="M129.252,189.709h-26.96c-24.669,0-38.649.624-53.804,13.4-7.411-2.103-19.825-7.382-27.656-20.028h107.594c.131,2.248.421,4.452.827,6.628Z"/>
    <path class="st0" d="M38.481,145.927c-4.815-13.052-2.422-23.915,4.264-32.369.885-1.131,1.885-2.204,2.915-3.234-1.059,3.394-1.175,6.642-.943,9.282l-1.001,1.523c-.392.58-7.744,12.124-.45,27.975-2.059-.87-3.727-2.19-4.786-3.176Z"/>
    <path class="st0" d="M42.745,246.443c-6.686-8.455-9.079-19.332-4.264-32.369,1.059-1.001,2.726-2.306,4.786-3.191-7.295,15.851.058,27.41.45,27.99l1.001,1.523c-.232,2.639-.116,5.888.943,9.282-1.03-1.03-2.03-2.103-2.915-3.234Z"/>
    <path class="st0" d="M38.887,153.816c-8.498,3.756-18.665,10.63-25.147,23.102h-5.612c6.41-12.429,18.592-21.957,26.438-26.235,1.088.986,2.538,2.132,4.322,3.133Z"/>
    <path class="st0" d="M34.566,209.317c-7.846-4.278-20.028-13.806-26.438-26.235h5.612c6.483,12.472,16.649,19.361,25.162,23.117-1.784.986-3.249,2.132-4.336,3.118Z"/>
  </g>
</svg>