<?xml version="1.0" encoding="UTF-8"?>
<svg id="Layer_1" xmlns="http://www.w3.org/2000/svg" version="1.1" viewBox="0 0 100 100">
  <!-- Generator: Adobe Illustrator 29.1.0, SVG Export Plug-In . SVG Version: 2.1.0 Build 142)  -->
  <defs>
    <style>
      .st0 {
        fill: #fff;
      }
    </style>
  </defs>
  <path class="st0" d="M34.1,45.7c1.8,0,3.2-.4,4.4-1.3,1.1-.8,1.7-2.2,1.7-4.1,0-1.1-.2-1.9-.6-2.6s-.9-1.2-1.5-1.6c-.6-.4-1.4-.6-2.2-.8-.8-.2-1.7-.2-2.6-.2h-9.3v10.6h10.1,0Z"/>
  <path class="st0" d="M40,54c-1.3-1-3-1.5-5.2-1.5h-10.9v12.4h10.7c.9,0,1.9,0,2.8-.3.9-.2,1.7-.5,2.3-1s1.2-1,1.6-1.8c.4-.8.6-1.7.6-2.9,0-2.3-.7-4-2-5h0Z"/>
  <path class="st0" d="M50,0C22.4,0,0,22.4,0,50s22.4,50,50,50,50-22.4,50-50S77.6,0,50,0ZM60.7,29.6h18.3v5.1h-18.3s0-5.1,0-5.1ZM50.6,65.5c-.9,1.7-2.1,3-3.6,4.1-1.5,1.1-3.2,1.8-5.1,2.3-1.9.5-3.9.8-5.9.8H14V27.3h21.3c2.2,0,4.1.2,5.9.6s3.3,1,4.6,1.9,2.2,2,3,3.5c.7,1.4,1,3.2,1,5.3s-.5,4.2-1.6,5.7-2.6,2.8-4.6,3.7c2.8.8,4.9,2.2,6.2,4.2s2.1,4.4,2.1,7.3-.4,4.3-1.3,5.9h0ZM64.5,64h0c1.3,1.3,3.3,2,5.8,2s3.4-.5,4.7-1.4,2.1-1.9,2.4-2.9h7.9c-1.3,3.9-3.2,6.8-5.8,8.4s-5.8,2.5-9.5,2.5-4.9-.4-7-1.2-3.8-2-5.3-3.5-2.5-3.3-3.3-5.5-1.2-4.4-1.2-7,.4-4.7,1.2-6.8,2-3.9,3.4-5.5,3.2-2.8,5.3-3.7c2.1-.9,4.3-1.3,6.8-1.3s5.2.5,7.3,1.6c2.1,1.1,3.8,2.5,5.1,4.3s2.3,3.9,2.9,6.2.8,4.8.6,7.3h-23.7c.1,2.9.9,5,2.2,6.3h0Z"/>
  <path class="st0" d="M74.7,46.7c-1.1-1.2-2.7-1.8-4.9-1.8s-2.6.2-3.6.7c-.9.5-1.7,1.1-2.3,1.8s-1,1.5-1.2,2.3-.4,1.5-.4,2.2h14.7c-.4-2.3-1.2-4-2.3-5.2h0Z"/>
</svg>