<?xml version="1.0" encoding="UTF-8"?>
<svg id="Layer_1" xmlns="http://www.w3.org/2000/svg" width="1.389in" height="1.389in" version="1.1" viewBox="0 0 100 100">
  <!-- Generator: Adobe Illustrator 29.8.5, SVG Export Plug-In . SVG Version: 2.1.1 Build 2)  -->
  <defs>
    <style>
      .st0 {
        fill: #fff;
      }
    </style>
  </defs>
  <path class="st0" d="M71.711,0H28.289C12.665,0,0,12.665,0,28.289v43.422c0,15.624,12.665,28.289,28.289,28.289h43.422c15.624,0,28.289-12.665,28.289-28.289V28.289c0-15.624-12.665-28.289-28.289-28.289ZM76.394,84.405s-13.021-.329-18.494-.329h-24.693l-14.735.329v-3.726l4.781-1.055c3.46-.692,4.481-1.713,4.481-4.452,0,0,.363-9.262.363-24.693s-.363-24.659-.363-24.659c0-3.068-1.021-3.76-4.481-4.452l-4.781-1.013v-3.76l14.406.295h27.427c5.473,0,14.701-.987,14.701-.987,0,0-.329,5.802-.692,19.515h-3.76l-1.384-4.815c-1.35-6.165-3.397-9.232-7.186-9.232h-21.558c-1.747.004-1.747.333-1.747,1.388v25.351s8.933,0,13.714-.363c3.76-.658,4.452-1.021,5.144-4.781l1.384-5.507h4.089l-.692,12.034.363,12.329h-4.122l-1.021-4.815c-1.021-3.426-2.405-4.122-5.144-4.452-3.426-.363-13.714-.363-13.714-.363v21.262c0,4.089,2.076,5.836,6.857,5.836h14.406c4.452,0,8.899-.363,11.671-6.857l3.726-8.241h3.46c-.363,1.713-2.076,16.811-2.405,20.207Z"/>
</svg>