<?xml version="1.0" encoding="UTF-8"?>
<svg id="Layer_1" xmlns="http://www.w3.org/2000/svg" width="10.417in" height="6.944in" version="1.1" xmlns:v="https://vecta.io/nano" xmlns:xlink="http://www.w3.org/1999/xlink" viewBox="0 0 750 500">
  <!-- Generator: Adobe Illustrator 29.8.7, SVG Export Plug-In . SVG Version: 2.1.1 Build 1)  -->
  <defs>
    <style>
      .st0 {
        clip-path: url(#clippath-6);
      }

      .st1 {
        clip-path: url(#clippath-4);
      }

      .st2 {
        fill: none;
      }

      .st3 {
        clip-path: url(#clippath-1);
      }

      .st4 {
        clip-path: url(#clippath-5);
      }

      .st5 {
        clip-path: url(#clippath-3);
      }

      .st6 {
        fill-rule: evenodd;
      }

      .st6, .st7 {
        fill: #ffb900;
      }

      .st8 {
        clip-path: url(#clippath-2);
      }

      .st9 {
        fill: #000f5d;
      }

      .st10 {
        clip-path: url(#clippath);
      }
    </style>
    <clipPath id="clippath">
      <rect class="st2" width="1000" height="666.667"/>
    </clipPath>
    <clipPath id="clippath-1">
      <rect class="st2" y="29.374" width="1000" height="533.334"/>
    </clipPath>
    <clipPath id="clippath-2">
      <rect class="st2" x="-4750.3" y="-284.64" width="13496.08" height="1815.89"/>
    </clipPath>
    <clipPath id="clippath-3">
      <rect class="st2" x="-10638.203" y="-167.72" width="29122.19" height="1240.48" transform="translate(-5.236 47.96) rotate(-.7)"/>
    </clipPath>
    <clipPath id="clippath-4">
      <rect class="st2" x="-249.996" y="-232.811" width="999.997" height="666.667"/>
    </clipPath>
    <clipPath id="clippath-5">
      <rect class="st2" x="-7995.781" y="-1270.87" width="13496.06" height="1815.89"/>
    </clipPath>
    <clipPath id="clippath-6">
      <rect class="st2" x="-3465.17" y="-13667.278" width="1148.43" height="26961.291" transform="translate(-2669.017 -3075.092) rotate(-89.3)"/>
    </clipPath>
  </defs>
  <path class="st9" d="M-99.996.005h949.992v499.99H-99.996V.005Z"/>
  <g>
    <path class="st7" d="M346.554,222.899c-.038-.045-.076-.1-.113-.154-18.529-22.737.765-33.618.685-49.705,12.084,20.987-5.161,25.641,15.324,49.875l-15.896-.016h0ZM366.585,222.912c-6.639-8.982-11.104-24.566-8.815-33.848,1.829-7.413,8.75-15.504,7.064-25.437,1.544,2.562,5.203,9.514,6.4,16.071,5.832-15.071,17.337-22.088,32.177-21.763-28.454,21.622,8.544,38.045-16.016,65.003l-20.81-.026h0ZM392.668,222.95c7.478-11.212,9.199-17.426,9.141-23.205-.045-4.544-.543-10.22-1.013-13.512-.944-6.607,3.731-15.006,13.728-16.825-1.716,1.829-3.236,5.669-4.017,7.581-.926,2.268-1.218,4.561-.632,8.555,1.225,4.641.654,11.426-.896,14.413-1.483.409,6-12.009,10.061-12.329-3.813,6.541-2.322,15.766-7.793,24.794-2.014,3.324-5.474,7.131-9.725,10.527M388.606,281.903c1.008-25.563,6.477-33.53,16.847-44.221-20.122-.048-42.609.011-60.906-.064,10.326,10.707,15.85,18.743,16.804,44.303l27.255-.018ZM374.939,344.185l7.961,24.97,4.397-74.147c-8.198-.028-16.396.024-24.594.012l4.22,74.119,8.016-24.954ZM374.948,456.148c3.512-3.257,4.509-13.866,4.509-13.866l2.185-45.299-6.635-4.662-6.649,4.647,2.115,45.31s.942,10.579,4.459,13.873l.016-.003Z"/>
    <path class="st7" d="M356.245,284.33h37.509v8.35h-37.509v-8.35Z"/>
    <g>
      <g class="st10">
        <path class="st6" d="M344.811,115.084h23.062l7.127-21.908,7.127,21.908h23.062l-18.658,13.539,7.127,21.907-18.658-13.539-18.658,13.539,7.127-21.907-18.658-13.539h0ZM353.858,43.447h16.151l4.991-15.348,4.991,15.348h16.151l-13.067,9.486,4.991,15.347-13.066-9.485-13.066,9.485,4.991-15.347-13.067-9.486ZM449.614,69.554h16.151l4.991-15.348,4.991,15.348h16.151l-13.067,9.485,4.991,15.348-13.066-9.486-13.066,9.486,4.991-15.348-13.067-9.485ZM520.201,132.162h16.151l4.99-15.348,4.991,15.348h16.151l-13.066,9.485,4.991,15.348-13.067-9.486-13.066,9.486,4.991-15.348-13.066-9.485h0ZM339.154,226.723h71.692v6.756h-71.692v-6.756ZM558.25,222.219h16.151l4.991-15.348,4.99,15.348h16.151l-13.066,9.485,4.991,15.348-13.066-9.485-13.067,9.485,4.991-15.348-13.066-9.485h0ZM545.833,322.065h16.151l4.99-15.347,4.991,15.347h16.151l-13.066,9.486,4.991,15.348-13.067-9.486-13.066,9.486,4.991-15.348-13.066-9.486h0ZM490.718,399.183h16.151s4.991-15.347,4.991-15.347l4.991,15.348h16.151s-13.067,9.485-13.067,9.485l4.991,15.348-13.066-9.486-13.066,9.486,4.991-15.348-13.067-9.486ZM406.856,447.067h16.151l4.991-15.347,4.991,15.347h16.151l-13.067,9.486,4.991,15.348-13.066-9.486-13.066,9.486,4.991-15.348-13.067-9.486h0ZM442.803,335.059h16.151s4.991-15.347,4.991-15.347l4.991,15.348h16.15s-13.066,9.485-13.066,9.485l4.991,15.348-13.066-9.486-13.067,9.486,4.992-15.348-13.067-9.486ZM480.886,245.66h16.151l4.99-15.348,4.991,15.348h16.151l-13.066,9.485,4.991,15.348-13.067-9.486-13.066,9.486,4.991-15.348-13.066-9.485h0ZM353.858,372.054h16.151l4.991-15.348,4.991,15.348h16.151l-13.067,9.485,4.991,15.348-13.066-9.486-13.066,9.486,4.991-15.348-13.067-9.485h0ZM300.386,69.554h-16.151l-4.991-15.348-4.991,15.348h-16.151l13.067,9.485-4.991,15.348,13.066-9.486,13.066,9.486-4.991-15.348,13.067-9.485ZM229.799,132.162h-16.151l-4.99-15.348-4.991,15.348h-16.151l13.066,9.485-4.991,15.348,13.067-9.486,13.066,9.486-4.991-15.348,13.066-9.485h0ZM191.75,222.219h-16.151l-4.991-15.348-4.99,15.348h-16.151l13.066,9.485-4.991,15.348,13.066-9.485,13.067,9.485-4.991-15.348,13.066-9.485h0ZM204.167,322.065h-16.151l-4.99-15.347-4.991,15.347h-16.151l13.066,9.486-4.991,15.348,13.067-9.486,13.066,9.486-4.991-15.348,13.066-9.486h0ZM259.282,399.183h-16.151s-4.991-15.347-4.991-15.347l-4.991,15.348h-16.151s13.067,9.485,13.067,9.485l-4.991,15.348,13.066-9.486,13.066,9.486-4.991-15.348,13.067-9.486ZM343.144,447.067h-16.151l-4.991-15.347-4.991,15.347h-16.151l13.067,9.486-4.991,15.348,13.066-9.486,13.066,9.486-4.991-15.348,13.067-9.486h0ZM307.197,335.059h-16.151s-4.991-15.347-4.991-15.347l-4.991,15.348h-16.15s13.066,9.485,13.066,9.485l-4.991,15.348,13.066-9.486,13.066,9.486-4.991-15.348,13.067-9.486h0ZM269.114,245.66h-16.151l-4.99-15.348-4.991,15.348h-16.151l13.066,9.485-4.991,15.348,13.067-9.486,13.066,9.486-4.991-15.348,13.066-9.485ZM198.108,222.597l.401,3.637,130.621-14.974-.402-3.638-130.62,14.975h0Z"/>
      </g>
      <g class="st3">
        <path class="st6" d="M373.145,143h3.709v20h-3.709v-20Z"/>
      </g>
      <g class="st8">
        <path class="st6" d="M292.282,98.296l3.02-2.154,47.037,65.942-3.02,2.154s-47.037-65.942-47.037-65.942Z"/>
      </g>
      <g class="st5">
        <path class="st6" d="M224.432,145.151l1.347-3.456,107.144,41.773-1.347,3.456-107.144-41.773Z"/>
      </g>
      <g class="st1">
        <path class="st6" d="M551.893,222.597l-.401,3.637-130.621-14.974.402-3.638,130.62,14.975h0Z"/>
      </g>
      <g class="st4">
        <path class="st6" d="M457.718,98.296l-3.02-2.154-47.037,65.942,3.02,2.154,47.037-65.942h0Z"/>
      </g>
    </g>
    <path class="st7" d="M332.691,114.373l-16.091-8.25,1.119-2.185,16.092,8.251-1.12,2.184ZM336.431,107.431l-13-12.567,1.868-1.933,15.315,3.057.924.209c.278.077.525.163.742.257l-10.539-10.187,1.63-1.686,13,12.567-1.851,1.916-15.575-3.053c-.238-.047-.476-.107-.714-.178l-.717-.266,10.539,10.188s-1.622,1.676-1.622,1.676ZM351.157,77.616l-3.934,1.534,5.007,12.843,3.935-1.534c1.685-.656,2.746-1.698,3.182-3.125.434-1.433.233-3.222-.602-5.364-.801-2.051-1.851-3.451-3.154-4.2s-2.78-.8-4.434-.154h0ZM350.746,94.944l-6.569-16.847,6.416-2.502c2.349-.916,4.418-.914,6.208.004,1.797.916,3.212,2.696,4.244,5.342,1.067,2.738,1.25,5.121.548,7.152-.697,2.019-2.204,3.482-4.523,4.386l-6.324,2.465h0ZM368.751,88.82l-1.43-18.027,2.448-.193,1.43,18.026-2.448.194ZM382.813,82.418l5.534,1.062-1.245-8.364-4.289,7.302ZM376.261,88.812l10.002-16.494,2.665.512,3.212,19.028-2.616-.502-.864-5.665-6.993-1.342-2.91,4.941-2.496-.478ZM395.29,92.887l10.22-14.918,2.218,1.52-.457,15.61-.053.946c-.028.288-.072.546-.129.775l8.285-12.092,1.934,1.325-10.221,14.918-2.197-1.506.409-15.867.057-.734.143-.751-8.286,12.092-1.923-1.318h0ZM418.418,103.661l3.003,4.768,5.262-6.619-8.265,1.851h0ZM409.274,103.238l18.881-3.95,1.445,2.295-11.713,15.338-1.419-2.256,3.552-4.498-3.794-6.025-5.598,1.246-1.354-2.15Z"/>
    <g class="st0">
      <path class="st6" d="M525.56,144.805l-1.247-3.199-99.194,38.673,1.247,3.199,99.194-38.673h0Z"/>
    </g>
  </g>
</svg>