<?xml version="1.0" encoding="UTF-8"?>
<svg id="Layer_1" xmlns="http://www.w3.org/2000/svg" version="1.1" viewBox="0 0 100 100">
  <!-- Generator: Adobe Illustrator 29.1.0, SVG Export Plug-In . SVG Version: 2.1.0 Build 142)  -->
  <defs>
    <style>
      .st0 {
        fill: #fff;
      }
    </style>
  </defs>
  <circle class="st0" cx="76.52" cy="23.47" r="6.02"/>
  <path class="st0" d="M50,24.04c-14.33,0-25.96,11.62-25.96,25.96s11.62,25.96,25.96,25.96,25.96-11.62,25.96-25.96-11.62-25.96-25.96-25.96ZM50,66.67c-9.21,0-16.67-7.46-16.67-16.67s7.46-16.67,16.67-16.67,16.67,7.46,16.67,16.67-7.46,16.67-16.67,16.67Z"/>
  <path class="st0" d="M71.5,0H28.5C12.76,0,0,12.76,0,28.5v43c0,15.74,12.76,28.5,28.5,28.5h43c15.74,0,28.5-12.76,28.5-28.5V28.5c0-15.74-12.76-28.5-28.5-28.5ZM91.18,72.65c0,10.23-8.3,18.53-18.53,18.53H27.35c-10.23,0-18.53-8.3-18.53-18.53V27.35c0-10.23,8.3-18.53,18.53-18.53h45.29c10.23,0,18.53,8.3,18.53,18.53v45.29h.01Z"/>
</svg>