<?xml version="1.0" encoding="UTF-8"?>
<svg id="Layer_1" xmlns="http://www.w3.org/2000/svg" width="17.153in" height="9.028in" version="1.1" viewBox="0 0 1235 650">
  <!-- Generator: Adobe Illustrator 29.8.7, SVG Export Plug-In . SVG Version: 2.1.1 Build 1)  -->
  <defs>
    <style>
      .st0 {
        fill: #b31942;
      }

      .st1 {
        fill: #fff;
      }

      .st2 {
        fill: #0a3161;
      }

      .st3 {
        stroke: #fff;
        stroke-miterlimit: 10;
        stroke-width: 50px;
      }
    </style>
  </defs>
  <path class="st0" d="M0,0h1235v650H0"/>
  <path class="st3" d="M0,75h1235M1235,175H0M0,275h1235M1235,375H0M0,475h1235M1235,575H0"/>
  <path class="st2" d="M0,0h494v350H0"/>
  <g>
    <g id="s18">
      <g id="s9">
        <g id="s5">
          <g id="s4">
            <path id="s" class="st1" d="M41.167,15l11.756,36.18-30.777-22.361h38.042l-30.777,22.361,11.756-36.18Z"/>
            <path id="s1" data-name="s" class="st1" d="M41.167,85l11.756,36.18-30.777-22.361h38.042l-30.777,22.361,11.756-36.18Z"/>
            <path id="s2" data-name="s" class="st1" d="M41.167,155l11.756,36.18-30.777-22.361h38.042l-30.777,22.361,11.756-36.18Z"/>
            <path id="s3" data-name="s" class="st1" d="M41.167,225l11.756,36.18-30.777-22.361h38.042l-30.777,22.361,11.756-36.18Z"/>
          </g>
          <path id="s6" data-name="s" class="st1" d="M41.167,295l11.756,36.18-30.777-22.361h38.042l-30.777,22.361,11.756-36.18Z"/>
        </g>
        <g id="s41" data-name="s4">
          <path id="s7" data-name="s" class="st1" d="M82.333,50l11.756,36.18-30.777-22.361h38.042l-30.777,22.361,11.756-36.18Z"/>
          <path id="s8" data-name="s" class="st1" d="M82.333,120l11.756,36.18-30.777-22.361h38.042l-30.777,22.361,11.756-36.18Z"/>
          <path id="s10" data-name="s" class="st1" d="M82.333,190l11.756,36.18-30.777-22.361h38.042l-30.777,22.361,11.756-36.18Z"/>
          <path id="s11" data-name="s" class="st1" d="M82.333,260l11.756,36.18-30.777-22.361h38.042l-30.777,22.361,11.756-36.18Z"/>
        </g>
      </g>
      <g id="s91" data-name="s9">
        <g id="s51" data-name="s5">
          <g id="s42" data-name="s4">
            <path id="s12" data-name="s" class="st1" d="M123.5,15l11.756,36.18-30.777-22.361h38.042l-30.777,22.361,11.756-36.18Z"/>
            <path id="s13" data-name="s" class="st1" d="M123.5,85l11.756,36.18-30.777-22.361h38.042l-30.777,22.361,11.756-36.18Z"/>
            <path id="s14" data-name="s" class="st1" d="M123.5,155l11.756,36.18-30.777-22.361h38.042l-30.777,22.361,11.756-36.18Z"/>
            <path id="s15" data-name="s" class="st1" d="M123.5,225l11.756,36.18-30.777-22.361h38.042l-30.777,22.361,11.756-36.18Z"/>
          </g>
          <path id="s16" data-name="s" class="st1" d="M123.5,295l11.756,36.18-30.777-22.361h38.042l-30.777,22.361,11.756-36.18Z"/>
        </g>
        <g id="s43" data-name="s4">
          <path id="s17" data-name="s" class="st1" d="M164.667,50l11.756,36.18-30.777-22.361h38.042l-30.777,22.361,11.756-36.18Z"/>
          <path id="s19" data-name="s" class="st1" d="M164.667,120l11.756,36.18-30.777-22.361h38.042l-30.777,22.361,11.756-36.18Z"/>
          <path id="s20" data-name="s" class="st1" d="M164.667,190l11.756,36.18-30.777-22.361h38.042l-30.777,22.361,11.756-36.18Z"/>
          <path id="s21" data-name="s" class="st1" d="M164.667,260l11.756,36.18-30.777-22.361h38.042l-30.777,22.361,11.756-36.18Z"/>
        </g>
      </g>
    </g>
    <g id="s181" data-name="s18">
      <g id="s92" data-name="s9">
        <g id="s52" data-name="s5">
          <g id="s44" data-name="s4">
            <path id="s22" data-name="s" class="st1" d="M205.833,15l11.756,36.18-30.777-22.361h38.042l-30.777,22.361,11.756-36.18Z"/>
            <path id="s23" data-name="s" class="st1" d="M205.833,85l11.756,36.18-30.777-22.361h38.042l-30.777,22.361,11.756-36.18Z"/>
            <path id="s24" data-name="s" class="st1" d="M205.833,155l11.756,36.18-30.777-22.361h38.042l-30.777,22.361,11.756-36.18Z"/>
            <path id="s25" data-name="s" class="st1" d="M205.833,225l11.756,36.18-30.777-22.361h38.042l-30.777,22.361,11.756-36.18Z"/>
          </g>
          <path id="s26" data-name="s" class="st1" d="M205.833,295l11.756,36.18-30.777-22.361h38.042l-30.777,22.361,11.756-36.18Z"/>
        </g>
        <g id="s45" data-name="s4">
          <path id="s27" data-name="s" class="st1" d="M247,50l11.756,36.18-30.777-22.361h38.042l-30.777,22.361,11.756-36.18Z"/>
          <path id="s28" data-name="s" class="st1" d="M247,120l11.756,36.18-30.777-22.361h38.042l-30.777,22.361,11.756-36.18Z"/>
          <path id="s29" data-name="s" class="st1" d="M247,190l11.756,36.18-30.777-22.361h38.042l-30.777,22.361,11.756-36.18Z"/>
          <path id="s30" data-name="s" class="st1" d="M247,260l11.756,36.18-30.777-22.361h38.042l-30.777,22.361,11.756-36.18Z"/>
        </g>
      </g>
      <g id="s93" data-name="s9">
        <g id="s53" data-name="s5">
          <g id="s46" data-name="s4">
            <path id="s31" data-name="s" class="st1" d="M288.167,15l11.756,36.18-30.777-22.361h38.042l-30.777,22.361,11.756-36.18Z"/>
            <path id="s32" data-name="s" class="st1" d="M288.167,85l11.756,36.18-30.777-22.361h38.042l-30.777,22.361,11.756-36.18Z"/>
            <path id="s33" data-name="s" class="st1" d="M288.167,155l11.756,36.18-30.777-22.361h38.042l-30.777,22.361,11.756-36.18Z"/>
            <path id="s34" data-name="s" class="st1" d="M288.167,225l11.756,36.18-30.777-22.361h38.042l-30.777,22.361,11.756-36.18Z"/>
          </g>
          <path id="s35" data-name="s" class="st1" d="M288.167,295l11.756,36.18-30.777-22.361h38.042l-30.777,22.361,11.756-36.18Z"/>
        </g>
        <g id="s47" data-name="s4">
          <path id="s36" data-name="s" class="st1" d="M329.333,50l11.756,36.18-30.777-22.361h38.042l-30.777,22.361,11.756-36.18Z"/>
          <path id="s37" data-name="s" class="st1" d="M329.333,120l11.756,36.18-30.777-22.361h38.042l-30.777,22.361,11.756-36.18Z"/>
          <path id="s38" data-name="s" class="st1" d="M329.333,190l11.756,36.18-30.777-22.361h38.042l-30.777,22.361,11.756-36.18Z"/>
          <path id="s39" data-name="s" class="st1" d="M329.333,260l11.756,36.18-30.777-22.361h38.042l-30.777,22.361,11.756-36.18Z"/>
        </g>
      </g>
    </g>
    <g id="s94" data-name="s9">
      <g id="s54" data-name="s5">
        <g id="s48" data-name="s4">
          <path id="s40" data-name="s" class="st1" d="M370.5,15l11.756,36.18-30.777-22.361h38.042l-30.777,22.361,11.756-36.18Z"/>
          <path id="s49" data-name="s" class="st1" d="M370.5,85l11.756,36.18-30.777-22.361h38.042l-30.777,22.361,11.756-36.18Z"/>
          <path id="s50" data-name="s" class="st1" d="M370.5,155l11.756,36.18-30.777-22.361h38.042l-30.777,22.361,11.756-36.18Z"/>
          <path id="s55" data-name="s" class="st1" d="M370.5,225l11.756,36.18-30.777-22.361h38.042l-30.777,22.361,11.756-36.18Z"/>
        </g>
        <path id="s56" data-name="s" class="st1" d="M370.5,295l11.756,36.18-30.777-22.361h38.042l-30.777,22.361,11.756-36.18Z"/>
      </g>
      <g id="s410" data-name="s4">
        <path id="s57" data-name="s" class="st1" d="M411.667,50l11.756,36.18-30.777-22.361h38.042l-30.777,22.361,11.756-36.18Z"/>
        <path id="s58" data-name="s" class="st1" d="M411.667,120l11.756,36.18-30.777-22.361h38.042l-30.777,22.361,11.756-36.18Z"/>
        <path id="s59" data-name="s" class="st1" d="M411.667,190l11.756,36.18-30.777-22.361h38.042l-30.777,22.361,11.756-36.18Z"/>
        <path id="s60" data-name="s" class="st1" d="M411.667,260l11.756,36.18-30.777-22.361h38.042l-30.777,22.361,11.756-36.18Z"/>
      </g>
    </g>
    <g id="s510" data-name="s5">
      <g id="s411" data-name="s4">
        <path id="s61" data-name="s" class="st1" d="M452.833,15l11.756,36.18-30.777-22.361h38.042l-30.777,22.361,11.756-36.18Z"/>
        <path id="s62" data-name="s" class="st1" d="M452.833,85l11.756,36.18-30.777-22.361h38.042l-30.777,22.361,11.756-36.18Z"/>
        <path id="s63" data-name="s" class="st1" d="M452.833,155l11.756,36.18-30.777-22.361h38.042l-30.777,22.361,11.756-36.18Z"/>
        <path id="s64" data-name="s" class="st1" d="M452.833,225l11.756,36.18-30.777-22.361h38.042l-30.777,22.361,11.756-36.18Z"/>
      </g>
      <path id="s65" data-name="s" class="st1" d="M452.833,295l11.756,36.18-30.777-22.361h38.042l-30.777,22.361,11.756-36.18Z"/>
    </g>
  </g>
</svg>